<?xml version="1.0" encoding="UTF-8" standalone="no"?>
<svg
   width="227pt"
   height="285pt"
   viewBox="0 0 227 285"
   version="1.1"
   id="svg1062"
   sodipodi:docname="klaankschild.svg"
   inkscape:version="1.2.1 (9c6d41e410, 2022-07-14)"
   xml:space="preserve"
   inkscape:export-filename="klaankschild.png"
   inkscape:export-xdpi="317.18063"
   inkscape:export-ydpi="317.18063"
   xmlns:inkscape="http://www.inkscape.org/namespaces/inkscape"
   xmlns:sodipodi="http://sodipodi.sourceforge.net/DTD/sodipodi-0.dtd"
   xmlns="http://www.w3.org/2000/svg"
   xmlns:svg="http://www.w3.org/2000/svg"><sodipodi:namedview
     id="namedview1064"
     pagecolor="#ffffff"
     bordercolor="#111111"
     borderopacity="1"
     inkscape:showpageshadow="0"
     inkscape:pageopacity="0"
     inkscape:pagecheckerboard="1"
     inkscape:deskcolor="#d1d1d1"
     inkscape:document-units="pt"
     showgrid="false"
     inkscape:zoom="1.6755095"
     inkscape:cx="-11.638251"
     inkscape:cy="179.64685"
     inkscape:window-width="1863"
     inkscape:window-height="1032"
     inkscape:window-x="57"
     inkscape:window-y="22"
     inkscape:window-maximized="1"
     inkscape:current-layer="svg1062" /><defs
     id="defs970"><clipPath
       id="clip-0"><path
         clip-rule="nonzero"
         d="M 0.480469 0.757812 L 3.589844 0.757812 L 3.589844 3.167969 L 0.480469 3.167969 Z M 0.480469 0.757812 "
         id="path948" /></clipPath><clipPath
       id="clip-1"><rect
         x="0"
         y="0"
         width="4"
         height="4"
         id="rect951" /></clipPath><g
       id="source-316112"
       clip-path="url(#clip-1)"><g
         clip-path="url(#clip-0)"
         id="g956"><path
           fill-rule="nonzero"
           fill="rgb(100%, 100%, 100%)"
           fill-opacity="1"
           d="M 3.050781 2.355469 L 3.027344 2.242188 C 3.027344 2.242188 3.25 1.34375 3.25 1.34375 C 3.28125 1.140625 3.199219 0.984375 3.003906 0.878906 C 2.664062 0.695312 2.148438 0.726562 1.910156 0.933594 C 1.910156 0.933594 2.160156 1.011719 2.179688 1.015625 C 2.292969 0.921875 2.421875 0.835938 2.589844 0.867188 C 2.851562 0.921875 3.144531 1.144531 3.1875 1.425781 C 3.214844 1.617188 3.109375 1.789062 2.902344 1.898438 C 2.480469 2.121094 2.367188 2.097656 2.0625 1.910156 L 1.324219 1.542969 C 0.984375 1.414062 0.722656 1.398438 0.5625 1.496094 C 0.492188 1.539062 0.503906 1.570312 0.480469 1.625 C 1.820312 1.742188 3.253906 3.011719 3.398438 3.148438 C 3.53125 3.179688 3.585938 3.160156 3.585938 3.160156 C 3.597656 3.140625 3.589844 3.054688 3.578125 3.015625 Z M 3.050781 2.355469 "
           id="path954" /></g></g><clipPath
       id="clip-2"><path
         clip-rule="nonzero"
         d="M 0.878906 0.390625 L 4.023438 0.390625 L 4.023438 3.964844 L 0.878906 3.964844 Z M 0.878906 0.390625 "
         id="path959" /></clipPath><clipPath
       id="clip-3"><rect
         x="0"
         y="0"
         width="5"
         height="4"
         id="rect962" /></clipPath><g
       id="source-316115"
       clip-path="url(#clip-3)"><g
         clip-path="url(#clip-2)"
         id="g967"><path
           fill-rule="nonzero"
           fill="rgb(100%, 100%, 100%)"
           fill-opacity="1"
           d="M 2.722656 0.820312 C 2.722656 0.820312 2.273438 0.558594 2.273438 0.554688 C 2.023438 0.40625 1.820312 0.355469 1.679688 0.414062 C 1.414062 0.519531 1.273438 0.996094 1.144531 1.460938 L 0.9375 2.105469 C 0.871094 2.269531 0.871094 2.363281 0.894531 2.390625 C 0.941406 2.464844 1.203125 2.457031 1.417969 2.449219 L 2.382812 2.574219 C 2.738281 2.742188 2.839844 3.136719 2.839844 3.53125 C 2.839844 3.6875 2.808594 3.824219 2.785156 3.964844 C 2.902344 3.714844 2.96875 3.4375 2.96875 3.179688 C 2.96875 2.976562 2.945312 2.800781 2.933594 2.699219 C 2.890625 2.417969 2.722656 2.25 2.59375 2.15625 C 2.378906 2.007812 2.089844 1.945312 1.855469 1.996094 C 1.609375 2.050781 1.4375 2.011719 1.335938 1.882812 C 1.253906 1.777344 1.199219 1.574219 1.390625 1.1875 L 1.855469 0.820312 C 2.148438 0.742188 2.511719 0.808594 2.800781 0.996094 C 2.800781 0.996094 3.890625 1.695312 3.890625 1.734375 C 3.902344 1.730469 4.007812 1.699219 4.023438 1.71875 C 3.972656 1.554688 3.253906 1.132812 2.722656 0.820312 "
           id="path965" /></g></g></defs><path
     fill-rule="nonzero"
     fill="rgb(100%, 100%, 100%)"
     fill-opacity="1"
     d="M 13.5 13.296875 L 13.5 173.703125 C 13.5 228.84375 58.359375 273.703125 113.5 273.703125 C 168.640625 273.703125 213.5 228.84375 213.5 173.703125 L 213.5 13.296875 Z M 13.5 13.296875 "
     id="path972"
     style="fill:#ffffff;fill-opacity:1" /><path
     fill-rule="nonzero"
     fill="rgb(89.411926%, 13.725281%, 13.33313%)"
     fill-opacity="1"
     d="M 113.5 148.5 L 210.5 52.5 L 113 52.5 Z M 113.5 148.5 "
     id="path974"
     style="fill:#218c32;fill-opacity:1" /><path
     fill-rule="nonzero"
     fill="rgb(89.411926%, 13.725281%, 13.33313%)"
     fill-opacity="1"
     d="M 113.5 244.5 L 113.5 272.5 C 113.5 272.5 214.5 269.5 212 158.5 L 212 148.5 Z M 113.5 244.5 "
     id="path976"
     style="fill:#218c32;fill-opacity:1" /><path
     fill-rule="nonzero"
     fill="rgb(100%, 92.941284%, 0%)"
     fill-opacity="1"
     d="M 113.5 148.5 L 113.5 244.5 L 212 148.5 L 212 52.5 Z M 113.5 148.5 "
     id="path978"
     style="fill:#e23130;fill-opacity:1" /><path
     fill-rule="nonzero"
     fill="rgb(10.195923%, 9.01947%, 10.588074%)"
     fill-opacity="1"
     d="M 200.773438 176.3125 C 200.773438 177.796875 199.8125 179 198.625 179 C 197.4375 179 196.476562 177.796875 196.476562 176.3125 C 196.476562 174.828125 197.4375 173.625 198.625 173.625 C 199.8125 173.625 200.773438 174.828125 200.773438 176.3125 "
     id="path984" /><path
     fill-rule="nonzero"
     fill="rgb(10.195923%, 9.01947%, 10.588074%)"
     fill-opacity="1"
     d="M 195.796875 90.167969 C 194.96875 90.1875 194.3125 90.875 194.335938 91.703125 L 196.167969 166.535156 C 196.1875 167.363281 196.875 168.019531 197.703125 168 C 198.53125 167.980469 199.1875 167.289062 199.167969 166.460938 L 197.335938 91.628906 C 197.3125 90.800781 196.625 90.148438 195.796875 90.167969 "
     id="path986" /><path
     fill-rule="nonzero"
     fill="rgb(10.195923%, 9.01947%, 10.588074%)"
     fill-opacity="1"
     d="M 183.746094 188.574219 C 182.289062 189.589844 179.855469 189.519531 177 188.871094 L 177 179.1875 C 178.929688 178.914062 180.683594 178.5625 182.09375 178.988281 C 184.15625 179.613281 185.183594 181.003906 185.328125 183.355469 C 185.488281 185.976562 184.957031 187.734375 183.746094 188.574219 M 163.636719 183.929688 C 166.851562 181.988281 170.558594 180.539062 174 179.617188 C 174 182.527344 174 184.945312 174 187.75 C 170.605469 186.667969 166.910156 185.375 163.636719 183.929688 M 160.726562 182.28125 C 159.179688 181.261719 156.886719 179.664062 154.394531 177.628906 C 155.230469 175.207031 155.808594 172.347656 156.09375 169.027344 C 156.097656 168.984375 156.101562 168.941406 156.101562 168.898438 L 156.101562 142.601562 C 158.527344 143.859375 160.960938 145.804688 163.222656 147.984375 C 161.875 150.902344 160.898438 153.941406 160.898438 156.894531 C 160.898438 159.625 161.734375 162.28125 163.878906 164.691406 C 166.59375 167.746094 170.253906 169.535156 174 169.878906 L 174 176.375 C 169.527344 177.457031 164.703125 179.652344 160.726562 182.28125 M 154.425781 187.714844 C 153.414062 186.46875 152.101562 185.226562 150.570312 184.027344 C 151.558594 183.070312 152.417969 181.894531 153.152344 180.507812 C 155.023438 181.996094 156.738281 183.226562 158.117188 184.15625 C 156.660156 185.316406 155.398438 186.511719 154.425781 187.714844 M 159.746094 210.1875 C 159.746094 211.445312 159.511719 212.507812 158.964844 213.289062 C 158.125 214.5 156.367188 215.03125 153.746094 214.871094 C 151.722656 214.746094 150.390625 213.9375 149.671875 212.398438 C 149.214844 211.414062 149.003906 210.199219 149.003906 208.828125 C 149.003906 204.339844 151.261719 198.21875 154.316406 193.164062 C 156.804688 198.816406 159.746094 205.722656 159.746094 210.1875 M 140.984375 158.734375 C 140.945312 158.515625 140.636719 156.835938 140.636719 154.585938 C 140.636719 150.121094 141.839844 143.421875 148.679688 141.386719 C 150.085938 140.964844 151.578125 141.039062 153.101562 141.433594 L 153.101562 168.816406 C 152.875 171.367188 152.46875 173.570312 151.917969 175.492188 C 146.921875 171 141.886719 165.054688 140.984375 158.734375 M 151.648438 108.960938 C 151.550781 109.027344 141.8125 115.589844 133.515625 110.65625 C 130.445312 108.832031 129.300781 106.117188 130.375 103.210938 C 131.566406 100 135.515625 97.054688 140.492188 97.925781 C 142.855469 98.339844 145.738281 99.441406 148.789062 100.605469 C 156.066406 103.386719 165.445312 106.96875 174.003906 103.082031 C 174 110.820312 174 120.746094 174 129.410156 C 172.074219 132.761719 170.222656 135.8125 168.78125 138.171875 L 167.554688 140.191406 C 166.605469 141.746094 165.585938 143.429688 164.636719 145.183594 C 162.015625 142.753906 159.105469 140.578125 156.101562 139.308594 L 156.101562 109.03125 C 156.101562 108.203125 155.429688 107.53125 154.601562 107.53125 C 153.835938 107.53125 153.214844 108.101562 153.117188 108.839844 C 152.65625 108.628906 152.097656 108.652344 151.648438 108.960938 M 177 89.945312 C 177.042969 89.0625 177.277344 88.613281 177.46875 88.515625 C 177.890625 88.296875 179.03125 88.671875 179.832031 89.15625 C 180.527344 89.871094 184.929688 94.664062 184.929688 102.007812 C 184.929688 103.511719 184.742188 105.117188 184.300781 106.820312 C 182.910156 112.136719 180.054688 118.289062 177 124.019531 L 177 101.375 C 178.320312 100.457031 179.609375 99.332031 180.859375 97.957031 C 181.417969 97.34375 181.371094 96.394531 180.757812 95.835938 C 180.144531 95.28125 179.195312 95.324219 178.640625 95.9375 C 178.101562 96.53125 177.554688 97.070312 177 97.5625 Z M 180.351562 148.550781 C 183.269531 149.945312 185.03125 151.789062 185.597656 154.027344 C 185.742188 154.601562 185.804688 155.179688 185.804688 155.75 C 185.804688 159.167969 183.566406 162.273438 183.539062 162.308594 C 183.511719 162.347656 183.484375 162.390625 183.460938 162.433594 C 182.0625 164.792969 179.722656 166.316406 177 166.800781 L 177 148.320312 C 178.011719 147.96875 179.152344 147.976562 180.351562 148.550781 M 174 146.582031 C 172.980469 147.320312 172.0625 148.277344 171.355469 149.523438 C 171.007812 150.144531 170.730469 150.824219 170.519531 151.527344 C 169.429688 150.191406 168.199219 148.777344 166.859375 147.378906 C 167.875 145.4375 169.03125 143.535156 170.117188 141.746094 L 171.34375 139.738281 C 172.121094 138.460938 173.039062 136.945312 174 135.34375 Z M 173.136719 154.921875 C 173.109375 154.707031 173.085938 154.492188 173.085938 154.273438 C 173.085938 153.117188 173.414062 151.980469 173.972656 150.996094 C 173.980469 150.980469 173.992188 150.96875 174 150.957031 L 174 156.132812 C 173.742188 155.765625 173.449219 155.359375 173.136719 154.921875 M 165.476562 150.289062 C 167.285156 152.246094 168.925781 154.265625 170.28125 156.089844 C 170.707031 158.089844 171.871094 160.039062 174 161.59375 L 174 166.875 C 171.097656 166.539062 168.261719 165.109375 166.121094 162.699219 C 164.550781 160.933594 163.925781 158.9375 163.925781 156.820312 C 163.925781 154.722656 164.546875 152.507812 165.476562 150.289062 M 125.003906 188.574219 C 123.792969 187.734375 123.261719 185.976562 123.421875 183.355469 C 123.566406 181.003906 124.597656 179.617188 126.664062 178.992188 C 131.144531 177.636719 139.015625 180.222656 145.148438 183.914062 C 137.902344 187.109375 128.566406 191.054688 125.003906 188.574219 M 182.960938 176.117188 C 181.257812 175.601562 179.210938 175.539062 177 175.816406 L 177 169.847656 C 180.8125 169.335938 184.101562 167.238281 186.039062 163.960938 C 186.015625 164.003906 185.984375 164.046875 185.957031 164.085938 C 186.117188 163.871094 189.859375 158.71875 188.511719 153.316406 C 187.726562 150.160156 185.414062 147.644531 181.648438 145.84375 C 180.109375 145.109375 178.515625 144.980469 177 145.273438 L 177 130.214844 C 181.03125 123.140625 185.339844 114.714844 187.199219 107.574219 C 187.714844 105.605469 187.933594 103.742188 187.933594 101.996094 C 187.933594 92.941406 182.089844 87.15625 181.792969 86.871094 C 181.726562 86.804688 181.648438 86.742188 181.566406 86.691406 C 181.246094 86.480469 178.363281 84.683594 176.101562 85.84375 C 175.207031 86.300781 174.121094 87.371094 174.003906 89.875 L 174.003906 99.71875 C 166.324219 104.089844 157.664062 100.785156 149.863281 97.804688 C 146.671875 96.585938 143.65625 95.433594 141.007812 94.96875 C 134.433594 93.820312 129.175781 97.820312 127.5625 102.171875 C 125.984375 106.4375 127.675781 110.675781 131.984375 113.234375 C 141.246094 118.746094 151.355469 112.726562 153.101562 111.597656 L 153.101562 138.332031 C 151.335938 137.980469 149.5625 137.992188 147.820312 138.511719 C 139.738281 140.917969 137.617188 148.683594 137.617188 154.738281 C 137.617188 156.421875 137.78125 157.964844 138.027344 159.230469 C 139.105469 166.800781 145.152344 173.648438 150.804688 178.550781 C 150.054688 180.117188 149.128906 181.328125 148.050781 182.238281 C 141.082031 177.660156 131.53125 174.386719 125.796875 176.121094 C 122.503906 177.113281 120.648438 179.554688 120.425781 183.171875 C 120.199219 186.910156 121.160156 189.554688 123.289062 191.039062 C 128.402344 194.597656 138.492188 190.140625 147.390625 186.207031 C 147.621094 186.105469 147.824219 185.957031 148.046875 185.839844 C 149.84375 187.164062 151.359375 188.5625 152.394531 189.925781 C 152.449219 190 152.507812 190.066406 152.574219 190.128906 C 152.574219 190.128906 152.609375 190.160156 152.640625 190.1875 C 148.875 195.871094 146.027344 203.171875 146.027344 208.84375 C 146.027344 210.652344 146.316406 212.296875 146.953125 213.667969 C 147.785156 215.449219 149.605469 217.625 153.5625 217.867188 C 157.300781 218.09375 159.945312 217.132812 161.429688 215.003906 C 162.34375 213.6875 162.730469 212.046875 162.730469 210.175781 C 162.730469 204.777344 159.519531 197.511719 156.597656 190.902344 C 156.5 190.679688 156.324219 190.5 156.214844 190.285156 C 156.238281 190.253906 156.261719 190.214844 156.285156 190.179688 L 156.503906 189.855469 C 157.515625 188.523438 158.988281 187.15625 160.75 185.855469 C 160.980469 185.996094 161.152344 186.097656 161.210938 186.128906 C 161.257812 186.160156 161.308594 186.183594 161.359375 186.207031 C 165.523438 188.046875 169.945312 189.992188 174 191.1875 L 174 212.695312 C 173.996094 215.3125 173.285156 222.753906 170.082031 225.703125 C 169.042969 226.660156 167.828125 227.070312 166.371094 226.953125 C 165.546875 226.882812 164.820312 227.5 164.753906 228.324219 C 164.6875 229.152344 165.304688 229.875 166.128906 229.941406 C 168.4375 230.128906 170.453125 229.445312 172.117188 227.90625 C 176.945312 223.457031 177 213.132812 177 212.695312 L 177 191.933594 C 180.378906 192.597656 183.347656 192.507812 185.460938 191.039062 C 187.589844 189.558594 188.550781 186.910156 188.324219 183.171875 C 188.101562 179.550781 186.246094 177.109375 182.960938 176.117188 "
     id="path988"
     style="fill:#000000" /><path
     style="fill:#e23130;stroke-width:0.149091;fill-opacity:1"
     d="M 17.499738,100.00163 V 53.002287 h 47.00223 47.002232 v 46.999343 46.99934 H 64.501968 17.499738 Z"
     id="path1204" /><text
     xml:space="preserve"
     style="font-style:normal;font-variant:normal;font-weight:bold;font-stretch:normal;font-size:34px;line-height:0;font-family:'Tlwg Mono';-inkscape-font-specification:'Tlwg Mono Bold';text-align:center;letter-spacing:12.4575px;text-anchor:middle;stroke-width:0.75"
     x="112.51762"
     y="45.67823"
     id="text1262"><tspan
       id="tspan1260"
       style="font-style:normal;font-variant:normal;font-weight:bold;font-stretch:normal;font-size:34px;font-family:'DejaVu Sans Mono';-inkscape-font-specification:'DejaVu Sans Mono Bold';text-align:center;text-anchor:middle;stroke-width:0.75"
       x="118.74637"
       y="45.67823"
       sodipodi:role="line">KLAANK</tspan></text><path
     style="fill:#218c32;fill-opacity:1;stroke-width:0.533863"
     d="M 134.00837,358.65759 C 113.024,355.84197 91.769438,347.06393 74.200404,333.95715 68.270303,329.5332 55.411173,317.00555 50.882392,311.24023 35.937466,292.21474 26.086337,267.90218 23.766797,244.31902 23.467721,241.27826 23.223022,230.28737 23.223022,219.89481 v -18.89555 h 62.728851 62.728857 v 79.27859 79.27859 l -4.40437,-0.0561 c -2.4224,-0.0308 -7.043,-0.41009 -10.26799,-0.8428 z"
     id="path13578"
     transform="scale(0.75)" /><g
     transform="matrix(-0.01781538,0,0,-0.01781538,111.57048,250.63516)"
     fill="#000000"
     stroke="none"
     id="g1670"
     style="fill:#000000"><path
       d="m 3220,5285 c -47,-7 -105,-18 -130,-25 -25,-8 -53,-15 -63,-17 -9,-1 -79,-34 -155,-72 -119,-61 -151,-82 -242,-165 -58,-53 -120,-108 -137,-124 -35,-29 -120,-147 -152,-209 -10,-21 -44,-100 -76,-175 -47,-114 -61,-164 -84,-292 -16,-84 -31,-158 -35,-165 -4,-6 -24,-11 -44,-11 -23,0 -50,-10 -75,-27 l -39,-27 -39,44 c -50,58 -75,140 -90,295 -18,184 -8,293 40,470 23,83 51,170 62,195 33,70 106,178 161,236 28,30 49,56 47,58 -10,10 -199,-45 -250,-72 -97,-51 -240,-166 -356,-285 -62,-64 -113,-121 -113,-127 0,-7 -10,-26 -22,-43 -27,-38 -38,-57 -90,-162 -22,-44 -43,-87 -47,-95 -13,-25 -39,-141 -46,-205 -9,-88 10,-221 45,-305 37,-89 57,-123 133,-223 l 59,-79 -38,-61 c -21,-33 -90,-113 -154,-177 -163,-162 -178,-189 -211,-365 -6,-33 -17,-71 -24,-85 -7,-14 -23,-49 -35,-77 -13,-29 -30,-61 -39,-70 -9,-10 -28,-36 -44,-58 -15,-22 -74,-83 -131,-135 C 662,2518 584,2392 509,2171 484,2097 407,1950 376,1917 351,1889 272,1763 263,1735 c -10,-32 -5,-56 30,-138 20,-47 67,-89 160,-146 32,-19 204,-74 267,-86 8,-1 22,-5 30,-8 8,-3 64,-12 123,-20 60,-9 111,-18 114,-21 3,-3 10,-46 15,-97 5,-51 13,-100 18,-109 5,-10 7,-20 4,-22 -2,-3 5,-26 16,-52 11,-26 20,-55 20,-65 0,-14 37,-70 96,-146 31,-40 112,-221 123,-276 18,-84 1,-165 -54,-273 -25,-48 -45,-90 -43,-91 9,-8 180,30 232,51 64,27 141,93 179,154 12,19 29,43 38,54 22,23 143,257 161,311 21,60 15,185 -14,300 -40,155 -42,218 -15,377 15,89 29,144 41,156 30,34 82,35 176,3 161,-55 275,-84 331,-84 66,0 159,42 191,86 11,15 24,27 29,27 11,0 145,-266 171,-340 10,-30 23,-75 29,-99 5,-24 19,-63 29,-87 11,-23 20,-47 20,-53 0,-21 21,-21 60,-1 22,11 40,22 40,25 0,2 -9,39 -19,82 -23,97 -50,165 -105,268 -24,44 -51,104 -60,133 -17,50 -17,56 -1,105 9,29 45,111 80,182 57,118 66,145 95,290 18,88 36,168 41,177 5,9 9,21 8,25 -1,4 0,11 1,16 1,4 4,24 6,45 1,20 6,52 10,69 9,47 -7,41 -54,-20 -43,-55 -95,-160 -142,-287 -34,-92 -62,-154 -72,-158 -5,-2 -8,-8 -8,-14 0,-23 -105,-157 -153,-194 -54,-42 -176,-105 -237,-122 -89,-26 -249,-20 -305,11 -11,6 -22,12 -25,13 -6,1 -38,13 -67,25 -13,5 -23,16 -23,24 0,9 -5,25 -10,36 -10,18 -12,18 -60,-6 -65,-33 -134,-34 -161,-2 -24,29 -24,50 2,95 21,37 21,38 2,80 l -18,43 -65,-50 c -36,-27 -95,-80 -131,-118 -183,-188 -350,-353 -358,-353 -5,0 -11,-4 -13,-8 -1,-5 -22,-12 -45,-16 l -43,-6 v 32 c 0,43 18,108 30,108 6,0 10,7 10,16 0,8 50,64 112,124 l 111,109 -27,36 c -15,20 -45,47 -66,61 l -38,25 -39,-24 c -22,-14 -62,-50 -89,-81 -48,-54 -70,-91 -133,-227 -23,-49 -42,-74 -72,-95 -98,-67 -274,-16 -315,92 l -16,43 81,149 c 45,81 102,199 127,262 96,240 131,296 324,520 192,224 191,221 294,515 30,83 61,165 70,183 23,44 102,121 179,173 35,24 86,62 112,84 47,39 50,40 123,40 h 75 l 20,41 c 31,65 77,85 211,95 61,4 121,11 133,14 12,4 47,-1 80,-11 45,-15 89,-18 201,-17 79,0 145,3 149,6 3,4 -6,20 -21,37 -14,17 -26,36 -26,40 0,5 -19,15 -42,21 -24,7 -45,14 -47,16 -3,2 11,16 29,32 l 34,28 -56,17 c -31,9 -62,16 -70,16 -24,0 -58,30 -78,70 -11,22 -20,41 -20,44 0,3 20,8 44,11 31,5 77,0 143,-14 54,-12 122,-21 150,-21 h 52 l 6,-47 c 3,-27 28,-93 55,-150 28,-55 50,-107 50,-115 0,-8 -36,-32 -80,-53 -44,-21 -80,-41 -80,-43 0,-3 9,-20 21,-39 14,-22 26,-32 38,-29 9,3 63,19 119,36 174,52 469,211 562,304 25,25 49,45 54,46 5,0 15,8 22,17 7,10 15,15 19,12 3,-4 -9,-31 -28,-60 -50,-80 -65,-117 -102,-252 -41,-150 -60,-341 -50,-506 l 7,-113 31,30 30,31 51,-42 c 28,-23 53,-45 56,-48 3,-4 37,-22 75,-42 101,-50 197,-156 265,-290 35,-68 78,-103 158,-126 52,-16 77,-30 107,-62 27,-27 85,-63 177,-110 76,-38 139,-69 141,-69 11,0 16,116 6,153 -11,46 -15,49 -149,111 -30,14 -71,38 -90,54 l -35,30 18,37 c 9,20 15,40 13,44 -3,4 -24,16 -47,26 -41,19 -41,19 -35,62 l 6,43 -90,45 c -50,25 -145,84 -213,133 -68,48 -149,103 -180,122 -50,31 -57,40 -66,79 -10,49 -10,51 69,181 88,144 189,365 225,490 44,150 56,202 61,255 2,22 10,85 18,140 19,124 19,118 2,112 -8,-3 -88,-59 -178,-125 -89,-65 -225,-161 -300,-213 -75,-52 -190,-132 -255,-178 -65,-46 -123,-86 -130,-88 -20,-8 -80,46 -109,95 -68,122 -81,229 -45,369 33,126 176,394 228,426 7,4 13,13 14,20 1,23 133,110 248,164 64,30 132,63 151,73 19,10 69,25 110,34 42,8 107,23 145,31 135,32 241,45 368,45 70,0 127,3 127,8 -1,10 -212,135 -280,166 -81,36 -191,55 -383,66 -215,12 -290,11 -397,-5 z m 343,-105 c 5,-4 7,-22 5,-41 -3,-30 -7,-35 -51,-48 l -49,-15 -29,33 c -16,19 -29,36 -30,40 0,3 -2,17 -5,30 l -4,23 77,-7 c 43,-4 82,-10 86,-15 z m -264,-30 c 12,-17 29,-50 37,-73 14,-39 14,-43 -2,-52 -10,-5 -46,-29 -82,-53 -35,-24 -65,-42 -67,-40 -1,2 -16,31 -33,64 -19,37 -49,76 -74,97 l -43,36 40,17 c 41,18 104,30 166,33 29,1 39,-5 58,-29 z m -272,-115 c 39,-36 72,-73 72,-83 0,-9 3,-28 6,-42 6,-22 -3,-34 -62,-86 -88,-77 -148,-124 -160,-124 -5,0 -25,23 -43,51 -18,28 -55,79 -81,112 -27,33 -49,63 -49,66 0,4 10,13 21,21 12,8 63,45 113,82 50,36 96,67 101,67 6,0 42,-29 82,-64 z m -1138,-12 c -12,-21 -28,-45 -36,-54 -7,-8 -13,-21 -13,-27 0,-20 -25,-13 -49,12 l -22,24 33,25 c 26,20 85,51 106,56 2,1 -6,-16 -19,-36 z m -149,-141 c 19,-9 35,-22 35,-27 -2,-48 -19,-146 -26,-151 -6,-3 -29,12 -53,34 -24,22 -53,43 -64,46 -26,8 -20,28 23,79 35,41 38,42 85,19 z m 956,-93 c 16,-23 48,-62 71,-88 24,-25 46,-56 49,-68 4,-13 10,-23 14,-23 23,0 14,-45 -22,-112 -39,-74 -80,-118 -109,-118 -15,0 -261,184 -267,200 -2,5 8,28 22,52 14,24 34,61 45,83 28,60 133,142 157,123 7,-5 24,-27 40,-49 z M 1638,4679 c 2,-5 8,-9 14,-9 6,0 21,-10 33,-22 13,-13 30,-29 39,-36 23,-19 20,-28 -19,-51 -34,-20 -38,-20 -108,-6 -121,26 -121,26 -92,89 11,24 26,35 53,43 38,11 75,7 80,-8 z m -77,-173 c 47,-8 105,-24 128,-36 l 43,-21 -7,-47 c -4,-26 -8,-48 -10,-50 -2,-2 -59,0 -127,3 l -123,7 -17,40 c -16,37 -16,42 0,79 9,21 19,39 22,39 3,0 44,-6 91,-14 z m 991,-125 c 43,-34 80,-61 83,-61 3,0 17,-11 30,-24 13,-13 29,-26 35,-28 9,-3 9,-27 1,-98 -7,-52 -13,-95 -14,-96 -2,-2 -145,24 -162,29 -5,2 -50,16 -98,31 -85,27 -88,29 -105,69 -9,23 -15,47 -13,52 2,6 11,44 21,85 18,80 35,120 50,120 6,0 10,6 10,13 0,7 6,19 13,26 10,10 18,5 42,-23 17,-19 65,-62 107,-95 z m -867,-137 c 33,-8 64,-19 69,-24 5,-5 4,-25 -1,-46 -8,-38 -9,-38 -78,-52 -103,-20 -151,-17 -218,11 -37,16 -38,17 -35,64 3,41 6,48 28,54 46,13 175,9 235,-7 z m 138,-213 c 5,-5 11,-21 12,-35 2,-14 6,-29 9,-35 7,-11 -5,-20 -31,-26 -10,-2 -54,-13 -98,-24 -97,-25 -155,-26 -213,-4 -41,15 -43,18 -38,46 3,16 6,36 6,44 0,10 4,11 19,3 33,-17 99,-7 186,30 11,5 27,11 35,14 21,8 102,-2 113,-13 z m 1902,-148 c -11,-73 -17,-110 -20,-134 -7,-47 -76,-213 -127,-309 -63,-117 -114,-185 -150,-201 -16,-6 -28,-15 -28,-20 0,-5 -7,-9 -15,-9 -15,0 -20,12 -9,23 4,3 8,23 10,44 1,21 5,49 8,63 2,14 7,39 10,57 3,18 9,40 14,50 5,10 19,51 30,92 29,101 119,248 196,317 67,61 88,68 81,27 z M 1605,3770 c 3,-5 -1,-10 -9,-10 -8,0 -18,5 -21,10 -3,6 1,10 9,10 8,0 18,-4 21,-10 z m 50,-2136 c 17,-42 19,-102 4,-159 -29,-112 -31,-134 -21,-215 5,-41 6,-79 3,-85 -4,-5 -13,-29 -21,-52 -7,-24 -16,-43 -20,-43 -15,0 -23,89 -25,275 -2,105 1,206 6,226 8,32 43,89 55,89 2,0 11,-16 19,-36 z m -188,-66 c -4,-18 -11,-89 -17,-158 -14,-152 -16,-162 -36,-136 -15,22 -18,103 -8,229 6,63 10,77 28,85 34,17 39,14 33,-20 z m -114,-335 c 2,-22 6,-44 9,-49 3,-5 9,-29 13,-54 4,-25 29,-89 56,-143 l 49,-97 -22,-30 c -12,-17 -25,-30 -29,-30 -10,0 -53,68 -94,150 -35,70 -37,78 -33,150 5,68 31,160 43,148 3,-2 6,-23 8,-45 z m -48,-349 c 38,-46 76,-97 85,-112 8,-15 18,-28 23,-30 4,-2 7,-10 7,-17 0,-7 3,-15 8,-17 8,-3 72,-96 72,-104 0,-10 -41,-64 -48,-64 -8,0 -39,59 -68,130 -10,25 -48,79 -83,120 -35,41 -71,82 -78,91 -14,17 -9,90 6,88 3,0 37,-38 76,-85 z m 398,-14 c -9,-41 -21,-45 -35,-10 -10,25 -11,42 -4,67 l 11,33 17,-33 c 9,-18 14,-43 11,-57 z"
       id="path1664"
       style="fill:#000000" /><path
       d="m 1933,3379 c -111,-18 -255,-95 -306,-163 -15,-19 -34,-41 -43,-50 -18,-19 -63,-125 -68,-164 -2,-15 -7,-35 -11,-44 -4,-11 -3,-18 3,-18 6,0 28,32 48,71 26,49 50,79 76,97 l 39,25 16,-24 c 9,-13 34,-41 55,-61 21,-21 38,-39 38,-42 0,-2 -16,-10 -35,-16 -19,-6 -35,-15 -35,-20 0,-15 123,-29 175,-20 28,5 55,9 60,9 35,2 204,163 205,194 0,10 -51,-2 -68,-16 -11,-8 -19,-5 -33,13 -10,14 -19,31 -19,37 0,7 -15,30 -34,51 l -35,38 77,29 c 52,20 93,29 129,29 50,-1 52,-1 28,12 -29,15 -163,45 -192,43 -10,-1 -42,-5 -70,-10 z m -6,-266 c -14,-35 -18,-38 -52,-36 -45,3 -61,15 -68,51 -5,22 0,33 31,59 l 37,32 34,-33 34,-34 z"
       id="path1666"
       style="fill:#000000" /><path
       d="m 848,2070 c -103,-37 -133,-56 -180,-112 -53,-62 -59,-107 -25,-182 14,-31 29,-56 33,-56 24,0 106,68 138,114 29,43 126,244 126,262 0,7 -13,3 -92,-26 z"
       id="path1668"
       style="fill:#000000" /></g><path
     fill-rule="nonzero"
     fill="rgb(10.195923%, 9.01947%, 10.588074%)"
     fill-opacity="1"
     d="M 115.5 269.675781 L 115.5 246.339844 L 209.5 152.339844 L 209.5 173.703125 C 209.5 225.96875 167.515625 268.609375 115.5 269.675781 M 17.5 173.703125 L 17.5 151 L 111.5 151 L 111.5 269.675781 C 59.484375 268.605469 17.5 225.96875 17.5 173.703125 M 209.5 49 L 17.5 49 L 17.5 17.296875 L 209.5 17.296875 Z M 115.5 150.808594 L 209.5 56.808594 L 209.5 146.660156 L 115.5 240.660156 Z M 111.5 147 L 17.5 147 L 17.5 53 L 111.5 53 Z M 115.5 53 L 207.648438 53 L 115.5 145.152344 Z M 13.5 13.296875 L 13.5 173.703125 C 13.5 228.84375 58.359375 273.703125 113.5 273.703125 C 168.640625 273.703125 213.5 228.84375 213.5 173.703125 L 213.5 13.296875 Z M 13.5 13.296875 "
     id="path980" /><g
     transform="matrix(0.01472945,-0.01472945,-0.01472945,-0.01472945,66.550105,183.23774)"
     fill="#000000"
     stroke="none"
     id="g2509"><path
       d="m 1361,3096 c -7,-8 -11,-32 -9,-53 3,-37 4,-38 46,-41 28,-2 42,-8 42,-18 0,-12 -75,-14 -533,-14 H 375 l -10,23 c -8,17 -20,23 -53,25 -71,5 -72,3 -72,-198 0,-98 3,-185 6,-194 5,-12 20,-16 61,-16 46,0 56,3 60,20 5,18 14,20 104,20 89,0 99,-2 99,-18 0,-29 21,-42 68,-42 39,0 45,3 55,30 11,29 13,30 79,30 59,0 68,-2 68,-18 0,-29 21,-42 65,-42 44,0 65,13 65,42 0,17 56,18 1324,18 1315,0 1324,0 1329,-20 4,-17 14,-20 62,-20 48,0 58,3 62,20 5,19 14,20 153,20 139,0 148,-1 153,-20 4,-17 14,-20 62,-20 48,0 58,3 62,20 5,20 14,20 538,20 529,0 533,0 538,-21 5,-18 12,-20 64,-17 51,3 58,6 61,26 2,12 9,22 17,22 7,0 25,14 39,31 24,28 26,38 26,123 0,79 -3,97 -20,119 -11,14 -28,28 -38,31 -9,3 -22,16 -27,28 -8,20 -18,23 -60,23 -42,0 -52,-3 -60,-22 -9,-22 -16,-23 -104,-23 -76,0 -98,3 -114,18 -17,15 -46,17 -239,20 -206,3 -222,2 -254,-17 -32,-19 -52,-21 -197,-21 -159,0 -162,0 -172,23 -8,19 -18,22 -60,22 -42,0 -52,-3 -60,-22 -9,-22 -14,-23 -155,-23 -141,0 -146,1 -155,23 -8,19 -18,22 -60,22 -42,0 -52,-3 -60,-23 l -10,-22 -247,2 c -155,2 -249,7 -251,13 -1,6 14,11 33,13 19,2 41,8 47,14 16,13 17,70 1,86 -9,9 -227,12 -919,12 -774,0 -908,-2 -918,-14 z m 1819,-41 c 0,-13 -107,-15 -900,-15 -793,0 -900,2 -900,15 0,13 107,15 900,15 793,0 900,-2 900,-15 z m -1645,-94 c 0,-30 -4,-35 -27,-38 -27,-4 -28,-2 -28,37 0,39 1,41 28,38 24,-3 27,-7 27,-37 z m 165,24 c 0,-12 -14,-15 -65,-15 -51,0 -65,3 -65,15 0,12 14,15 65,15 51,0 65,-3 65,-15 z m 90,-25 c 0,-36 -2,-40 -25,-40 -22,0 -25,4 -25,40 0,36 3,40 25,40 23,0 25,-4 25,-40 z m 170,25 c 0,-12 -14,-15 -65,-15 -51,0 -65,3 -65,15 0,12 14,15 65,15 51,0 65,-3 65,-15 z m 90,-26 c 0,-38 -1,-40 -27,-37 -47,5 -45,78 2,78 23,0 25,-4 25,-41 z m 165,26 c 0,-5 -28,-11 -62,-13 -52,-2 -63,0 -63,13 0,13 11,15 63,13 34,-2 62,-7 62,-13 z m 93,-21 c -3,-32 -7,-37 -30,-40 -26,-2 -28,0 -28,37 0,37 2,39 31,39 29,0 30,-2 27,-36 z m 162,21 c 0,-13 -11,-15 -62,-13 -38,2 -63,8 -66,16 -3,9 14,12 62,12 53,0 66,-3 66,-15 z m 90,-15 c 0,-16 0,-33 0,-37 0,-5 -11,-9 -25,-10 -23,-2 -25,2 -25,38 0,35 3,39 25,39 21,0 25,-5 25,-30 z m 170,15 c 0,-12 -14,-15 -65,-15 -51,0 -65,3 -65,15 0,12 14,15 65,15 51,0 65,-3 65,-15 z m 90,-24 c 0,-34 -3,-38 -25,-38 -22,0 -25,4 -25,38 0,35 3,39 25,39 22,0 25,-4 25,-39 z m 170,24 c 0,-12 -14,-15 -65,-15 -51,0 -65,3 -65,15 0,12 14,15 65,15 51,0 65,-3 65,-15 z m 90,-25 c 0,-39 -1,-40 -27,-37 -24,3 -28,9 -31,40 -3,35 -2,37 27,37 29,0 31,-2 31,-40 z m -2742,-147 -3,-168 -27,-3 -28,-3 v 170 171 h 30 30 z m 3380,0 -3,-168 -27,-3 -28,-3 v 170 171 h 30 30 z m 422,-4 v -170 l -27,3 -28,3 -3,168 -2,167 h 30 30 z m 1208,4 -3,-168 -27,-3 -28,-3 v 170 171 h 30 30 z m -323,137 c 37,-41 -2,-126 -72,-156 -50,-21 -294,-19 -340,3 -42,20 -73,66 -73,110 0,61 8,63 249,63 204,0 219,-1 236,-20 z m -3585,-25 c 0,-9 -9,-28 -20,-43 -47,-63 -27,-147 43,-177 29,-13 4,-14 -230,-15 -279,0 -284,1 -242,46 47,50 30,147 -31,179 -37,19 -64,19 -105,-1 -64,-30 -80,-110 -35,-174 32,-45 27,-50 -50,-50 -63,0 -70,2 -70,20 0,11 4,20 9,20 5,0 16,16 26,36 22,47 13,92 -26,130 -25,24 -39,29 -80,29 -44,0 -54,-4 -80,-33 -39,-43 -41,-107 -4,-150 14,-17 25,-35 25,-41 0,-7 -34,-11 -100,-11 H 370 v 118 c 0,65 3,122 7,125 3,4 244,7 535,7 469,0 528,-2 528,-15 z m 260,-2 c 0,-9 -10,-27 -22,-41 -17,-18 -23,-36 -23,-72 0,-54 20,-84 70,-106 27,-12 18,-13 -90,-13 -109,0 -117,1 -89,13 43,19 74,62 74,103 0,34 -27,93 -42,93 -4,0 -8,9 -8,20 0,18 7,20 65,20 54,0 65,-3 65,-17 z m 257,0 c 4,-9 1,-19 -5,-21 -19,-6 -42,-57 -42,-91 0,-49 21,-83 65,-102 l 40,-19 -120,1 c -108,0 -117,1 -90,13 50,22 70,52 70,106 0,36 -6,54 -22,72 -41,43 -31,58 37,58 48,0 62,-4 67,-17 z m 258,6 c 4,-6 -2,-21 -14,-33 -62,-66 -38,-171 45,-196 20,-6 -8,-8 -91,-9 -111,0 -117,1 -88,14 66,28 89,115 45,174 -37,50 -30,61 37,61 33,0 63,-5 66,-11 z m 255,-4 c 0,-8 -11,-31 -25,-51 -14,-20 -25,-49 -25,-63 0,-38 36,-90 73,-106 30,-13 25,-14 -83,-15 -110,0 -114,1 -85,16 45,23 65,53 65,103 0,32 -7,53 -26,78 -14,18 -22,38 -19,43 3,6 33,10 66,10 45,0 59,-3 59,-15 z m 260,-1 c 0,-9 -11,-29 -25,-46 -48,-57 -24,-142 49,-174 28,-12 20,-13 -89,-13 -109,0 -117,1 -89,13 73,32 97,117 49,174 -42,50 -35,62 40,62 53,0 65,-3 65,-16 z m 255,6 c 3,-5 -5,-25 -19,-43 -48,-63 -29,-147 39,-178 l 40,-19 -120,1 c -112,0 -118,1 -88,14 37,16 73,68 73,106 0,14 -11,43 -25,63 -39,57 -34,66 34,66 33,0 63,-4 66,-10 z m 635,-115 v -125 l -282,1 c -174,0 -272,4 -254,9 85,26 108,129 44,197 -11,12 -17,26 -13,32 4,7 89,11 256,11 h 249 z m 428,-2 3,-123 h -151 -150 v 125 126 l 148,-3 147,-3 z m 452,100 c 1,-44 35,-108 71,-134 32,-23 44,-24 198,-27 90,-2 175,-1 188,3 13,3 41,21 63,41 36,32 50,64 55,119 1,18 10,20 88,23 l 87,3 v -126 -125 h -535 -535 v 125 125 h 160 160 z m 908,5 c 8,-8 12,-46 12,-103 0,-85 -8,-115 -32,-115 -4,0 -8,52 -8,115 0,63 4,115 8,115 4,0 13,-5 20,-12 z M 687,2868 c 48,-45 14,-128 -53,-128 -47,0 -78,29 -78,75 0,68 80,101 131,53 z m 262,12 c 10,-5 24,-22 30,-39 31,-75 -66,-136 -126,-79 -65,60 17,161 96,118 z m 613,-20 c 24,-24 29,-36 24,-58 -9,-35 -50,-72 -82,-72 -35,0 -74,42 -74,80 0,39 39,80 75,80 16,0 39,-12 57,-30 z m 252,9 c 20,-16 26,-29 26,-59 0,-30 -6,-43 -26,-59 -15,-12 -37,-21 -49,-21 -12,0 -34,9 -49,21 -20,16 -26,29 -26,59 0,30 6,43 26,59 15,12 37,21 49,21 12,0 34,-9 49,-21 z m 261,-4 c 16,-15 25,-36 25,-55 0,-39 -39,-80 -75,-80 -29,0 -85,49 -85,74 0,72 86,111 135,61 z m 252,5 c 29,-27 37,-56 23,-90 -22,-53 -103,-63 -135,-17 -52,74 47,168 112,107 z m 259,-3 c 20,-17 27,-33 27,-57 0,-39 -40,-80 -79,-80 -35,0 -74,42 -74,80 0,38 39,80 74,80 14,0 37,-11 52,-23 z m 259,-2 c 16,-15 25,-36 25,-55 0,-38 -39,-80 -74,-80 -69,0 -104,92 -52,137 35,30 71,29 101,-2 z m 260,0 c 16,-15 25,-36 25,-55 0,-36 -38,-80 -69,-80 -61,0 -103,56 -82,109 22,53 87,66 126,26 z M 660,2665 c 0,-32 -2,-35 -30,-35 -28,0 -30,3 -30,35 0,32 2,35 30,35 28,0 30,-3 30,-35 z m 280,0 c 0,-32 -2,-35 -30,-35 -28,0 -30,3 -30,35 0,32 2,35 30,35 28,0 30,-3 30,-35 z"
       id="path2505" /><path
       d="m 4687,2942 c -22,-25 -21,-75 1,-95 14,-13 39,-17 105,-17 77,0 87,2 101,22 9,12 16,32 16,43 0,11 -7,31 -16,43 -14,20 -24,22 -103,22 -72,0 -91,-3 -104,-18 z m 177,-28 c 12,-12 13,-20 5,-35 -9,-17 -19,-19 -81,-17 -78,3 -105,21 -79,52 19,22 133,22 155,0 z"
       id="path2507" /></g><g
     transform="matrix(-0.03638207,0,0,-0.03638207,108.69268,141.0652)"
     fill="#000000"
     stroke="none"
     id="g2551"><path
       d="m 1794,2241 c -35,-15 -39,-30 -40,-156 -1,-133 -11,-173 -66,-255 -18,-27 -181,-204 -363,-393 -246,-257 -333,-342 -342,-335 -9,7 -17,7 -27,-1 -18,-15 -41,10 -24,27 8,8 7,13 -6,18 -11,4 -27,-3 -47,-22 -36,-35 -39,-59 -5,-50 29,7 43,-9 26,-29 -7,-9 -8,-15 0,-20 5,-3 10,-11 10,-17 0,-7 -6,-6 -15,2 -12,10 -18,10 -30,0 -20,-17 -36,-3 -29,26 9,33 -15,32 -49,-4 -34,-36 -36,-56 -3,-48 29,7 43,-9 26,-29 -10,-12 -10,-18 0,-30 8,-9 9,-15 2,-15 -6,0 -14,5 -17,10 -5,8 -11,7 -20,0 -20,-17 -36,-3 -29,26 9,34 -15,31 -50,-5 -19,-19 -26,-36 -22,-47 5,-12 9,-14 20,-5 18,15 41,-10 24,-27 -8,-8 -8,-15 2,-27 C 731,822 708,795 564,644 297,367 220,281 220,262 220,234 111,135 57,115 25,103 10,92 10,80 10,59 77,-3 93,3 c 6,2 18,24 26,50 18,52 123,167 153,167 9,0 33,14 53,31 l 35,31 v -40 c 0,-56 15,-91 58,-135 50,-51 117,-71 190,-56 46,9 64,21 127,80 53,50 80,69 99,69 43,0 64,15 178,128 l 107,105 40,-36 c 23,-20 50,-37 61,-37 24,0 60,34 60,56 0,9 -28,45 -62,80 -75,78 -66,85 13,9 62,-59 87,-67 119,-35 32,32 24,57 -35,119 -76,79 -69,88 9,13 35,-34 70,-62 78,-62 7,0 24,7 36,16 37,26 28,59 -35,125 l -57,60 271,272 c 250,251 271,276 282,320 27,109 -34,220 -137,250 l -44,13 52,47 c 28,26 82,61 118,79 64,32 71,33 189,33 149,1 163,9 163,90 0,77 -46,160 -139,254 -112,112 -239,171 -307,142 z m 131,-60 c 112,-52 249,-204 276,-303 8,-32 7,-44 -6,-64 -15,-23 -18,-24 -99,-18 -145,11 -253,-29 -374,-141 -37,-34 -83,-67 -102,-75 -23,-8 -128,-105 -302,-278 -231,-230 -269,-264 -283,-252 -13,11 -1,27 97,129 670,692 661,680 662,891 1,63 5,121 9,128 13,20 58,14 122,-17 z m -140,-650 c 64,-37 95,-116 75,-192 -11,-38 -45,-77 -275,-308 -175,-177 -266,-261 -275,-256 -8,5 73,93 253,274 231,232 266,271 273,304 19,108 -70,195 -178,172 -26,-6 -91,-65 -299,-272 -147,-146 -269,-261 -272,-256 -3,5 112,127 257,272 277,277 303,297 376,285 19,-3 48,-13 65,-23 z m -19,-75 c 45,-45 47,-91 3,-140 -26,-30 -35,-34 -60,-29 -28,5 -43,-7 -252,-216 l -223,-221 -54,55 -55,56 265,264 c 255,254 267,265 304,265 30,0 45,-7 72,-34 z M 1490,1035 C 1372,917 1271,820 1265,820 c -5,0 87,97 205,215 119,118 220,215 225,215 6,0 -87,-97 -205,-215 z m -78,-447 c -18,-18 -468,432 -458,458 6,15 51,-26 239,-214 185,-185 229,-234 219,-244 z M 966,953 c -7,-7 -26,7 -26,19 0,6 6,6 15,-2 9,-7 13,-15 11,-17 z m 356,-455 c -18,-18 -476,440 -460,460 9,11 57,-32 242,-217 184,-184 228,-233 218,-243 z m -312,412 c 0,-5 -2,-10 -4,-10 -3,0 -8,5 -11,10 -3,6 -1,10 4,10 6,0 11,-4 11,-10 z m 222,-502 c -18,-18 -476,440 -460,460 9,11 57,-32 242,-217 184,-184 228,-233 218,-243 z M 865,869 c 11,-17 -1,-21 -15,-4 -8,9 -8,15 -2,15 6,0 14,-5 17,-11 z m 319,-138 c -6,-6 -144,130 -144,143 0,6 34,-23 75,-64 41,-41 72,-76 69,-79 z m -269,89 c 3,-5 1,-10 -4,-10 -6,0 -11,5 -11,10 0,6 2,10 4,10 3,0 8,-4 11,-10 z M 777,774 c 4,-12 -504,-520 -512,-512 -8,8 487,527 499,524 6,-1 11,-6 13,-12 z m 248,-64 c 38,-38 67,-72 64,-74 -3,-3 -38,28 -79,69 -41,41 -70,75 -64,75 5,0 41,-31 79,-70 z M 632,526 C 421,314 411,298 424,225 c 14,-75 93,-125 173,-110 33,6 67,35 239,207 133,132 204,196 209,188 8,-13 -322,-351 -389,-397 -96,-67 -230,-12 -257,106 -18,78 -3,100 214,318 110,111 205,200 210,196 5,-3 -81,-96 -191,-207 z m 598,164 c 0,-5 -2,-10 -4,-10 -3,0 -8,5 -11,10 -3,6 -1,10 4,10 6,0 11,-4 11,-10 z M 917,638 970,585 855,470 C 751,366 739,350 737,316 735,284 725,269 668,214 611,159 597,150 565,150 c -29,0 -45,8 -72,35 -32,32 -35,39 -30,77 5,38 22,58 199,235 106,106 195,193 198,193 2,0 28,-24 57,-52 z m 218,-38 c 3,-5 1,-10 -4,-10 -6,0 -11,5 -11,10 0,6 2,10 4,10 3,0 8,-4 11,-10 z M 885,432 C 820,368 773,324 780,335 c 23,34 214,225 219,219 3,-3 -48,-57 -114,-122 z m 95,-77 C 917,292 861,240 855,240 c -5,0 42,52 105,115 63,63 119,115 125,115 5,0 -42,-52 -105,-115 z M 90,76 C 90,65 71,61 65,70 c -3,5 1,10 9,10 9,0 16,-2 16,-4 z"
       id="path2549" /></g></svg>
