<?xml version="1.0" standalone="no"?>
<!DOCTYPE svg PUBLIC "-//W3C//DTD SVG 20010904//EN"
 "http://www.w3.org/TR/2001/REC-SVG-20010904/DTD/svg10.dtd">
<svg version="1.0" xmlns="http://www.w3.org/2000/svg"
 width="994.000000pt" height="994.000000pt" viewBox="0 0 994.000000 994.000000"
 preserveAspectRatio="xMidYMid meet">
<metadata>
Created by potrace 1.14, written by Peter Selinger 2001-2017
</metadata>
<g transform="translate(0.000000,994.000000) scale(0.100000,-0.100000)"
fill="#000000" stroke="none">
<path d="M1153 6743 c4 -3390 2 -3245 52 -3549 136 -815 523 -1549 1123 -2126
837 -805 1996 -1185 3147 -1032 1362 181 2526 1089 3043 2374 145 361 232 749
262 1172 6 96 10 1213 10 3252 l0 3106 -3820 0 -3820 0 3 -3197z m7487 2437
l0 -610 -3668 2 -3667 3 -3 608 -2 607 3670 0 3670 0 0 -610z m-3750 -2490 l0
-1730 -1790 0 -1790 0 0 1730 0 1730 1790 0 1790 0 0 -1730z m3737 -752 l-3
-2483 -22 -135 c-43 -272 -86 -451 -153 -653 -256 -767 -759 -1429 -1429
-1883 -545 -369 -1199 -590 -1837 -621 l-133 -6 0 4131 0 4132 1790 0 1790 0
-3 -2482z m-3737 -3465 l0 -2316 -132 6 c-764 37 -1531 341 -2135 846 -639
533 -1074 1260 -1244 2080 -60 290 -62 315 -66 1034 l-4 667 1790 0 1791 0 0
-2317z"/>
<path d="M1470 9180 l0 -470 95 0 95 0 0 161 0 161 38 49 c20 26 39 48 42 48
3 1 55 -94 115 -209 l110 -210 99 0 c89 0 98 2 92 18 -7 16 -210 396 -267 497
l-28 51 144 179 c79 99 144 183 145 188 0 4 -44 7 -98 7 l-99 0 -144 -185
-144 -185 -5 182 -5 183 -92 3 -93 3 0 -471z"/>
<path d="M2800 9180 l0 -470 290 0 290 0 0 80 0 80 -200 0 -200 0 0 390 0 390
-90 0 -90 0 0 -470z"/>
<path d="M4180 9608 c-18 -67 -178 -661 -211 -780 -16 -59 -29 -110 -29 -113
0 -3 40 -5 90 -5 90 0 90 0 96 28 4 15 16 65 28 112 l21 85 127 3 127 3 10
-38 c5 -21 18 -72 29 -113 l18 -75 91 -3 92 -3 -38 143 c-21 79 -78 290 -127
471 l-88 327 -113 0 -112 0 -11 -42z m171 -326 c23 -101 39 -185 37 -188 -3
-3 -44 -4 -90 -2 l-85 3 39 170 c41 183 48 208 53 203 2 -2 23 -86 46 -186z"/>
<path d="M5441 9618 c-12 -40 -232 -854 -239 -885 -4 -23 -2 -23 86 -23 l90 0
27 115 28 115 127 0 128 0 28 -115 28 -115 92 0 92 0 -25 93 c-14 50 -71 261
-127 467 l-102 375 -111 3 -111 3 -11 -33z m169 -340 c22 -97 40 -179 40 -182
0 -3 -41 -6 -91 -6 -81 0 -90 2 -85 18 2 9 21 91 42 182 20 91 39 169 42 175
7 11 3 25 52 -187z"/>
<path d="M6510 9180 l0 -470 80 0 80 0 2 337 3 336 129 -336 129 -337 99 0 98
0 0 470 0 470 -80 0 -80 0 -2 -342 -3 -343 -130 340 -131 340 -97 3 -97 3 0
-471z"/>
<path d="M7760 9180 l0 -470 90 0 90 0 0 154 0 153 43 56 c23 31 44 56 47 56
3 0 54 -94 115 -209 l110 -210 97 0 c54 0 98 3 98 6 0 6 -182 347 -266 500
l-34 61 145 181 c80 100 145 184 145 187 0 3 -44 5 -99 5 l-98 0 -144 -184
c-79 -101 -147 -182 -151 -179 -5 2 -8 85 -8 184 l0 179 -90 0 -90 0 0 -470z"/>
<path d="M2104 8276 c-154 -48 -367 -234 -451 -393 -55 -104 -66 -229 -23
-268 23 -21 122 -34 256 -35 119 0 170 -14 262 -68 62 -37 173 -125 180 -142
1 -4 -23 -17 -55 -28 -68 -25 -132 -83 -165 -151 -34 -68 -33 -200 1 -255 13
-21 114 -131 223 -244 l199 -205 -158 -161 c-218 -221 -327 -335 -332 -347 -5
-15 29 -49 49 -49 9 0 21 5 28 12 6 6 14 10 16 7 3 -3 -121 -134 -276 -293
-224 -229 -285 -286 -301 -282 -24 6 -77 -29 -77 -51 0 -18 198 -223 215 -223
18 0 65 55 65 76 0 11 20 39 44 63 35 35 49 42 69 38 33 -9 79 38 70 71 -8 34
42 85 77 77 34 -8 85 43 75 74 -5 18 50 78 344 373 l350 353 35 -34 c20 -19
36 -39 36 -43 0 -4 -29 -39 -63 -77 -100 -108 -109 -159 -37 -196 30 -16 33
-15 65 7 19 13 62 48 97 78 l63 55 -61 -70 c-94 -107 -100 -125 -58 -174 38
-45 98 -38 149 19 11 12 38 36 60 53 l40 31 -41 -45 c-117 -128 -125 -149 -73
-193 41 -35 65 -32 123 12 27 20 55 41 62 47 10 7 28 -4 66 -41 267 -254 280
-264 348 -264 24 0 48 -17 125 -91 117 -111 162 -134 265 -133 64 0 83 4 129
29 58 32 115 91 137 142 8 17 17 57 20 87 4 31 10 56 14 56 4 0 15 -9 26 -21
10 -12 42 -33 69 -46 72 -37 183 -153 225 -237 19 -39 40 -72 47 -74 7 -2 35
18 63 44 66 61 63 78 -15 122 -68 38 -190 153 -240 227 -39 57 -147 176 -415
456 -264 276 -281 296 -280 333 1 17 0 40 -2 51 -2 14 2 19 12 16 70 -18 79
19 19 84 -23 25 -52 48 -65 51 -15 4 -24 13 -24 26 0 30 -72 98 -104 98 -18 0
-24 4 -20 14 7 17 -68 102 -98 112 -30 9 -53 -18 -39 -44 16 -30 15 -31 -31
-25 -31 4 -53 15 -78 40 l-35 34 115 109 c63 60 122 110 131 110 21 0 65 49
72 81 8 31 142 163 158 154 15 -10 79 54 79 79 0 14 94 115 281 300 227 225
284 277 301 273 14 -4 30 3 49 23 24 23 29 37 29 75 0 56 -16 88 -69 139 -33
33 -50 41 -98 47 -72 10 -105 -8 -114 -65 -7 -44 -55 -97 -110 -123 -50 -24
-255 -226 -281 -277 -30 -60 -169 -196 -200 -196 -30 0 -68 -38 -68 -69 0 -32
-125 -161 -156 -161 -35 0 -87 -48 -80 -75 5 -18 -15 -41 -110 -130 -89 -84
-118 -105 -125 -94 -5 8 -9 17 -9 21 0 4 -13 14 -30 23 -26 14 -421 422 -599
620 -79 87 -133 175 -151 245 -7 25 -15 119 -19 210 -8 174 -14 199 -58 219
-31 14 -88 13 -139 -3z m115 -60 c7 -8 14 -86 19 -194 l8 -182 38 -72 c64
-127 162 -239 659 -756 377 -392 403 -422 363 -422 -21 0 -96 68 -351 320
-309 304 -398 385 -475 435 -36 23 -105 76 -154 117 -161 137 -293 188 -484
188 -90 0 -100 2 -120 23 -77 82 -34 198 137 368 135 133 320 224 360 175z
m2205 -165 c16 -17 28 -33 25 -35 -5 -6 -27 12 -64 53 -38 43 -3 27 39 -18z
m-35 -42 c84 -90 90 -99 67 -99 -19 0 -166 147 -166 166 0 29 26 11 99 -67z
m-70 -62 c22 -30 41 -62 41 -73 0 -24 -518 -544 -542 -544 -10 0 -41 22 -69
49 l-51 50 18 23 c11 13 43 45 72 72 l53 49 35 -16 c46 -22 59 -21 119 7 32
15 81 55 137 113 99 101 111 131 85 208 l-16 45 31 35 c16 19 34 35 38 35 4 0
26 -24 49 -53z m-143 -72 c12 -18 15 -37 11 -63 -5 -30 -23 -53 -96 -124 -77
-75 -95 -88 -123 -88 -39 0 -78 24 -78 48 0 9 16 35 35 57 l34 40 1 -27 c0
-18 9 -33 25 -44 22 -14 27 -15 48 -2 34 23 97 91 97 106 0 22 -47 62 -67 56
-10 -3 0 11 21 30 46 42 70 45 92 11z m-91 -107 c-8 -20 -52 -40 -60 -28 -9
15 44 65 56 53 5 -5 7 -17 4 -25z m-410 -377 c81 -76 128 -131 113 -131 -20 0
-158 127 -158 146 0 21 11 17 45 -15z m-14 -225 c-30 -30 -62 -56 -71 -59 -12
-3 -34 12 -65 43 -55 56 -54 60 25 134 l52 49 56 -57 57 -56 -54 -54z m-1175
94 c50 -34 707 -680 699 -688 -2 -2 -155 142 -340 322 -185 179 -356 338 -381
352 -125 73 -288 -33 -289 -187 0 -46 5 -62 33 -100 18 -24 166 -181 330 -349
340 -348 377 -388 368 -397 -11 -11 -700 687 -731 741 -90 154 33 354 211 343
37 -2 63 -12 100 -37z m-45 -79 c24 -15 125 -107 224 -204 l180 -175 -74 -75
-74 -76 -128 121 c-151 142 -172 158 -220 158 -57 0 -109 66 -109 139 0 46 43
105 95 127 43 19 56 17 106 -15z m1062 -80 c37 -38 67 -72 67 -75 0 -20 -40 2
-92 51 -72 69 -87 93 -60 93 10 0 49 -31 85 -69z m-43 -106 c0 -9 -45 -62
-100 -118 l-100 -102 -51 53 -51 52 78 86 c43 47 91 97 108 111 l30 25 43 -45
c24 -25 43 -53 43 -62z m-770 -430 c124 -124 223 -225 220 -225 -3 0 -106 101
-230 225 -124 124 -223 225 -220 225 3 0 106 -101 230 -225z m180 181 c0 -2
-30 -30 -67 -62 l-68 -58 60 62 c52 54 75 72 75 58z m50 -51 c14 -16 10 -18
-14 -9 -9 3 -16 10 -16 15 0 14 16 11 30 -6z m-70 -38 c0 -2 -15 -16 -32 -33
l-33 -29 29 33 c28 30 36 37 36 29z m143 -35 c28 -29 27 -42 -4 -42 -22 0 -50
37 -42 56 7 20 16 18 46 -14z m-82 -60 c5 -13 25 -30 45 -38 l36 -15 -23 -25
-23 -24 -10 32 c-8 24 -22 38 -53 53 -48 23 -52 36 -21 67 l22 22 9 -25 c5
-13 13 -34 18 -47z m662 19 c3 -9 8 -25 13 -35 6 -17 4 -18 -17 -12 -13 4 -29
8 -36 8 -6 1 -11 8 -11 17 0 9 -3 26 -7 38 -7 21 -6 21 23 11 17 -7 33 -19 35
-27z m-178 -48 c-38 -50 -508 -520 -562 -562 -105 -80 -21 15 267 303 283 283
369 359 295 259z m250 7 c10 -11 16 -20 13 -20 -3 0 -13 9 -23 20 -10 11 -16
20 -13 20 3 0 13 -9 23 -20z m-475 -89 c-5 -9 -37 -44 -72 -79 l-64 -62 -39
40 -39 40 74 75 74 75 38 -37 c27 -27 35 -40 28 -52z m-292 53 c12 -8 22 -25
22 -36 0 -21 -2 -20 -30 7 -44 42 -38 62 8 29z m801 -34 c16 0 41 -37 41 -59
0 -5 -18 -8 -40 -8 -35 2 -38 4 -34 23 3 12 1 25 -5 28 -17 11 -13 29 5 22 9
-3 24 -6 33 -6z m-1197 -107 c-44 -49 -107 -113 -139 -143 -158 -149 -151
-137 22 38 104 105 191 192 193 192 3 0 -32 -39 -76 -87z m1068 83 c0 -11
-113 -139 -215 -245 -125 -129 -394 -381 -407 -381 -22 0 29 58 226 258 191
194 378 372 391 372 3 0 5 -2 5 -4z m-929 -53 c13 -16 12 -17 -3 -4 -10 7 -18
15 -18 17 0 8 8 3 21 -13z m-61 -26 c0 -2 -12 -14 -27 -28 l-28 -24 24 28 c23
25 31 32 31 24z m82 -104 c12 -13 29 -25 40 -29 24 -7 23 -26 -2 -49 -19 -18
-20 -17 -20 3 0 30 -46 79 -80 87 -37 8 -38 19 -3 51 l28 26 8 -34 c5 -18 18
-43 29 -55z m67 19 c-24 -4 -39 12 -39 42 0 17 4 16 31 -10 30 -28 30 -29 8
-32z m950 6 c-29 -43 -534 -548 -576 -577 -84 -57 -11 25 270 306 281 281 363
354 306 271z m-449 -53 c-41 -41 -77 -75 -79 -75 -3 0 28 34 69 75 41 41 77
75 79 75 3 0 -28 -34 -69 -75z m-706 30 c2 -7 -1 -16 -9 -19 -16 -6 -39 19
-31 33 8 13 33 4 40 -14z m97 -43 c26 -22 22 -43 -15 -67 -42 -28 -85 1 -70
47 5 16 33 35 55 37 4 1 17 -7 30 -17z m-181 5 c0 -2 -12 -14 -27 -28 l-28
-24 24 28 c23 25 31 32 31 24z m1536 -274 c477 -495 504 -534 76 -107 -311
310 -379 385 -323 355 10 -6 121 -117 247 -248z m-1486 232 c0 -31 26 -68 62
-86 21 -11 38 -23 38 -27 0 -5 -11 -19 -25 -32 -23 -22 -25 -22 -25 -4 0 39
-37 82 -80 94 -35 10 -39 13 -30 30 18 33 60 51 60 25z m940 -18 c0 -1 -33
-34 -72 -72 l-73 -70 70 73 c64 67 75 77 75 69z m-1051 -53 c3 -16 1 -17 -13
-5 -19 16 -21 34 -3 29 6 -3 14 -13 16 -24z m100 -38 c18 -19 21 -28 12 -44
-15 -29 -49 -34 -72 -11 -25 25 -24 44 3 63 29 21 30 20 57 -8z m1740 -539
c19 -39 22 -59 18 -99 -12 -97 -75 -171 -174 -203 -45 -15 -60 -15 -103 -5
-27 6 -69 25 -92 42 -52 37 -501 486 -519 519 -16 32 24 -4 291 -263 238 -229
267 -254 322 -268 114 -31 247 75 248 198 0 81 -24 111 -397 493 -73 74 -133
140 -133 145 0 5 117 -108 258 -251 186 -187 265 -274 281 -308z m-1919 550
c0 -2 -12 -14 -27 -28 l-28 -24 24 28 c23 25 31 32 31 24z m1557 -281 c264
-268 283 -291 283 -356 0 -43 -4 -51 -40 -84 -80 -72 -128 -64 -242 44 -73 68
-86 85 -92 121 -11 68 -32 97 -185 252 l-146 148 72 70 72 71 28 -20 c16 -11
128 -121 250 -246z m-1507 239 c0 -30 30 -73 60 -87 37 -16 38 -37 5 -68 l-25
-23 0 36 c0 44 -26 75 -71 84 -39 8 -43 16 -18 47 23 29 49 35 49 11z m-112
-69 c3 -13 -1 -17 -14 -14 -11 2 -20 11 -22 22 -3 13 1 17 14 14 11 -2 20 -11
22 -22z m106 -42 c20 -51 -17 -88 -60 -59 -42 27 -29 75 21 75 21 0 35 -6 39
-16z m-112 -88 c15 -19 38 -36 50 -38 12 -2 23 -8 25 -14 4 -12 -211 -224
-227 -224 -6 0 -15 11 -20 24 -14 37 -51 66 -84 66 -30 1 -25 6 84 110 63 60
122 109 130 110 8 0 27 -15 42 -34z m1298 -101 c35 -36 62 -65 59 -65 -2 0
-34 29 -69 65 -35 36 -62 65 -59 65 2 0 34 -29 69 -65z m-100 -140 c63 -63
112 -115 110 -115 -3 0 -57 52 -120 115 -63 63 -112 115 -110 115 3 0 57 -52
120 -115z m-1432 9 c41 -28 19 -94 -32 -94 -30 0 -46 18 -46 51 0 24 30 59 50
59 3 0 16 -7 28 -16z m-100 -98 c9 -10 32 -25 51 -33 l33 -14 -23 -25 c-27
-29 -49 -31 -49 -5 0 32 -48 71 -88 71 l-36 0 44 46 45 45 3 -33 c2 -18 11
-41 20 -52z m172 -21 c10 -12 9 -16 -5 -21 -19 -8 -40 9 -31 25 10 15 21 14
36 -4z m-212 -37 c17 -17 15 -54 -4 -72 -24 -24 -61 -20 -80 9 -15 23 -15 27
0 50 18 27 63 34 84 13z m-134 -32 c-7 -28 17 -78 48 -100 l21 -15 -32 -31
c-18 -16 -39 -30 -46 -30 -16 0 -75 69 -75 86 0 12 76 114 85 114 3 0 3 -11
-1 -24z m193 -82 c9 -23 -11 -38 -26 -20 -13 16 -7 36 10 36 5 0 12 -7 16 -16z
m-192 -172 c-11 -11 -49 16 -109 78 -99 103 -72 111 30 9 46 -46 82 -85 79
-87z m2991 54 c10 -8 16 -17 12 -21 -8 -8 -48 13 -48 25 0 14 13 12 36 -4z"/>
<path d="M6987 7266 c-97 -35 -177 -118 -245 -254 l-46 -94 -56 5 c-228 19
-476 -84 -650 -270 -132 -140 -185 -270 -185 -448 0 -129 21 -209 91 -348 l44
-88 -83 -82 c-243 -239 -374 -529 -393 -873 -35 -635 268 -1045 1058 -1435 91
-45 105 -55 97 -70 -8 -15 -19 -12 -111 35 -151 76 -389 146 -502 146 -71 0
-136 -30 -198 -91 -89 -88 -100 -178 -35 -276 25 -38 47 -56 107 -86 164 -82
394 -71 590 28 38 19 73 35 77 35 5 -1 30 -20 57 -44 l48 -42 -60 -125 c-64
-131 -84 -201 -101 -339 -27 -216 55 -455 182 -534 97 -60 184 -41 276 60 85
93 118 219 108 419 -10 193 -63 356 -170 520 -50 76 -50 80 5 133 l34 32 135
-64 c330 -159 514 -172 636 -44 44 46 63 97 63 171 0 114 -68 198 -188 234
-83 24 -246 21 -337 -7 -67 -21 -187 -76 -228 -105 -18 -12 -28 -10 -101 27
-44 22 -82 42 -84 43 -2 2 6 33 17 70 12 37 26 109 32 159 l12 92 80 13 c44 7
107 23 139 36 123 50 255 159 338 280 50 72 118 224 140 309 24 96 26 236 5
321 -52 207 -214 390 -393 445 -110 34 -261 21 -364 -31 -20 -10 -39 -19 -41
-19 -2 0 -7 57 -11 128 -4 70 -9 152 -12 182 l-5 55 80 37 c133 63 237 174
281 303 40 116 16 210 -71 274 l-46 33 77 103 c42 56 103 143 136 194 53 82
61 91 84 85 239 -57 522 -9 749 126 147 87 241 183 226 230 -10 33 -56 26
-107 -17 -176 -148 -385 -221 -603 -210 -55 3 -123 10 -152 17 l-52 11 21 47
c46 108 61 167 62 257 1 76 -3 97 -23 139 -63 127 -292 212 -434 162z m146
-157 c62 -24 122 -77 143 -126 33 -77 1 -282 -42 -275 -10 2 -91 39 -179 82
-88 42 -177 83 -197 90 -21 6 -38 13 -38 14 0 2 9 29 20 60 28 83 70 155 99
172 34 19 119 12 194 -17z m-486 -342 c7 -4 6 -28 -2 -79 -15 -85 -42 -350
-51 -490 l-6 -97 -66 -22 c-100 -33 -245 -96 -341 -149 l-85 -48 -24 32 c-97
130 -146 358 -107 501 45 169 201 306 395 350 65 15 264 16 287 2z m329 -138
c98 -50 181 -93 183 -95 6 -5 -97 -159 -191 -286 l-79 -106 -69 -4 -70 -3 0
90 c0 161 27 495 40 495 4 0 88 -41 186 -91z m-443 -920 c-64 -77 -57 -76
-157 -38 -82 30 -211 119 -195 133 20 19 179 88 279 122 l125 43 3 -95 3 -95
-58 -70z m402 230 c56 -50 65 -123 23 -204 -28 -53 -82 -92 -159 -113 l-37
-10 -6 37 c-3 20 -6 65 -6 100 l0 63 66 79 c36 43 70 79 75 79 4 0 24 -14 44
-31z m-877 -289 c62 -55 144 -103 222 -131 36 -12 66 -23 68 -25 2 -1 -26 -40
-61 -85 -190 -248 -293 -460 -327 -671 -16 -96 -8 -281 14 -363 57 -206 207
-376 431 -489 95 -47 258 -106 295 -106 23 0 23 -1 18 -128 -3 -70 -9 -135
-14 -145 -8 -14 -29 -6 -169 69 -286 154 -463 280 -611 437 -217 229 -304 457
-304 798 0 295 65 507 217 707 47 61 157 172 171 172 2 0 25 -18 50 -40z m506
-190 l42 0 12 -225 12 -225 -77 -73 c-103 -97 -153 -162 -153 -197 0 -34 28
-47 62 -29 13 6 57 48 99 93 l77 81 6 -55 c5 -47 17 -195 62 -798 l6 -83 -68
26 c-609 229 -718 798 -266 1384 81 105 89 112 116 107 16 -3 47 -6 70 -6z
m502 -444 c155 -41 294 -184 356 -365 34 -100 32 -237 -5 -351 -72 -217 -182
-335 -348 -375 -68 -16 -167 -20 -185 -7 -6 4 -16 81 -23 182 -6 96 -18 254
-26 350 -8 96 -19 240 -25 320 -6 80 -13 161 -16 181 -5 36 -4 37 38 52 82 30
155 34 234 13z m401 -1682 c91 -30 152 -101 153 -176 0 -27 -2 -28 -54 -28
-90 0 -298 70 -424 144 -31 17 -32 20 -15 30 76 43 254 59 340 30z m-1407 -18
c127 -29 222 -62 314 -108 l69 -35 -64 -18 c-147 -42 -350 -15 -433 58 -34 30
-70 102 -59 119 8 14 66 8 173 -16z m733 -71 l38 -18 -32 -33 -33 -34 -37 36
c-37 36 -37 38 -21 59 11 15 22 20 32 15 8 -4 32 -15 53 -25z m-34 -364 c37
-52 100 -194 122 -276 18 -64 22 -110 23 -230 1 -185 -12 -245 -54 -245 -67 0
-155 109 -192 238 -29 98 -28 261 1 366 25 91 60 176 72 176 4 0 17 -13 28
-29z"/>
<path d="M8005 6416 c-17 -7 -43 -27 -57 -44 l-26 -31 -6 -323 c-3 -178 -7
-667 -8 -1088 -3 -753 -3 -765 17 -768 29 -6 83 27 106 64 20 32 20 55 31
1110 12 1199 17 1112 -57 1080z"/>
<path d="M7913 3926 c-24 -21 -28 -31 -28 -80 0 -70 31 -108 90 -108 69 0 110
70 85 146 -22 67 -94 88 -147 42z"/>
<path d="M2412 4479 c-176 -11 -234 -30 -384 -125 -38 -24 -40 -28 -23 -35 11
-4 56 -8 100 -8 46 -1 139 -13 221 -30 117 -24 158 -38 244 -81 56 -28 120
-63 142 -77 102 -68 228 -309 228 -439 0 -69 -28 -145 -71 -187 l-38 -39 -98
68 c-54 37 -182 128 -285 201 -104 74 -195 136 -203 139 -19 8 -19 -3 -1 -126
26 -180 84 -341 192 -532 80 -141 79 -142 -71 -245 -66 -44 -148 -96 -182
-115 -56 -29 -63 -36 -63 -64 0 -23 -6 -34 -25 -42 -22 -10 -25 -18 -23 -49 3
-37 3 -38 -76 -80 -44 -24 -83 -49 -88 -56 -8 -13 -11 -127 -3 -127 16 0 168
84 209 115 27 20 67 43 89 51 52 18 79 44 116 108 45 79 97 133 169 175 37 21
76 48 86 60 23 25 39 27 57 4 13 -15 15 -13 20 13 28 129 -18 420 -85 540 -15
26 -25 49 -23 50 2 2 27 -16 56 -41 97 -82 294 -184 420 -216 49 -12 54 -12
67 6 21 28 18 32 -28 56 -70 35 -69 33 -38 102 15 34 33 80 40 103 l12 40 102
13 c55 7 113 11 129 10 l27 -4 -20 -32 c-14 -23 -31 -35 -62 -43 -74 -19 -73
-18 -54 -38 21 -24 20 -29 -8 -36 -25 -6 -62 -53 -51 -64 4 -4 46 -6 93 -5 48
1 141 3 207 4 144 3 185 -8 215 -57 20 -31 26 -34 69 -34 42 0 56 -7 126 -59
133 -98 147 -117 209 -284 65 -176 73 -188 189 -326 120 -142 147 -184 217
-341 33 -74 81 -171 106 -217 l45 -84 -18 -31 c-25 -42 -75 -71 -128 -72 -67
-2 -91 18 -142 117 -46 89 -129 187 -159 187 -8 0 -34 -18 -57 -39 l-42 -39
86 -89 c67 -69 88 -98 93 -127 4 -21 5 -40 2 -43 -19 -19 -76 25 -231 176 -94
93 -180 173 -192 179 -17 10 -22 8 -32 -14 -9 -20 -9 -34 1 -60 23 -64 -29
-92 -106 -60 -36 15 -37 15 -48 -9 -17 -39 -106 -69 -200 -68 -72 0 -87 4
-163 42 -67 33 -94 53 -130 98 -54 66 -64 84 -121 222 -44 107 -100 201 -120
201 -29 0 47 -319 107 -451 26 -58 51 -118 54 -132 5 -20 -6 -55 -48 -144 -30
-65 -61 -144 -68 -177 -12 -54 -11 -60 6 -73 36 -26 49 -12 86 97 19 58 56
147 82 198 l48 93 31 -26 c69 -58 122 -60 294 -10 175 51 178 49 204 -137 9
-65 8 -90 -10 -176 -11 -55 -20 -130 -20 -166 0 -59 5 -77 46 -159 60 -120
123 -207 172 -240 50 -33 202 -73 202 -53 0 2 -14 34 -31 70 -42 90 -43 149
-5 241 16 39 49 99 73 135 50 77 71 132 87 238 l12 77 94 17 c214 37 344 100
381 182 32 71 30 79 -57 212 -30 45 -74 132 -99 194 -58 147 -89 194 -213 323
-111 115 -148 178 -171 286 -19 92 -45 134 -144 239 -53 56 -103 114 -111 129
-13 27 -12 31 39 101 68 92 96 165 102 268 8 115 -14 196 -88 328 -100 178
-295 350 -450 397 -37 11 -74 19 -80 17 -8 -3 2 -20 23 -44 125 -139 185 -331
175 -562 -5 -135 -20 -196 -60 -245 -22 -28 -23 -28 -52 -13 -17 9 -41 20 -55
25 -23 8 -27 20 -48 122 -27 132 -91 290 -153 380 -61 87 -207 211 -312 265
-105 54 -154 70 -267 84 -91 11 -99 11 -268 -1z m168 -78 c0 -6 -10 -22 -23
-36 -18 -22 -28 -25 -50 -19 -31 7 -43 25 -33 49 6 17 106 22 106 6z m214 -20
l29 -12 -30 -32 c-17 -18 -38 -47 -47 -64 -9 -18 -19 -33 -22 -33 -4 0 -67 41
-102 65 -6 4 20 61 36 79 13 14 27 17 62 13 25 -2 58 -10 74 -16z m181 -92
c39 -27 69 -54 68 -59 -5 -19 -106 -151 -114 -148 -4 2 -37 27 -73 57 -83 69
-87 94 -24 158 23 24 49 43 58 43 8 0 47 -23 85 -51z m682 0 c32 -20 33 -23
18 -38 -15 -15 -18 -14 -41 14 -40 49 -32 58 23 24z m110 -101 c13 -12 23 -26
23 -32 0 -12 -64 -66 -78 -66 -9 0 -28 89 -20 94 7 6 43 25 47 26 3 0 15 -10
28 -22z m-631 -40 c29 -20 83 -96 99 -138 4 -11 -15 -31 -62 -67 -118 -88
-118 -88 -143 -61 -12 13 -33 45 -46 72 l-23 49 22 31 c30 44 108 136 115 136
3 0 20 -10 38 -22z m724 -98 c11 -11 20 -26 20 -34 0 -26 -100 -47 -144 -30
-26 10 -18 32 21 59 45 30 76 32 103 5z m50 -125 c6 -17 6 -33 -1 -49 -10 -21
-20 -24 -91 -30 -44 -4 -82 -5 -84 -3 -2 2 -7 17 -10 34 -6 29 -3 32 37 46 24
9 55 18 69 20 59 10 70 7 80 -18z m-632 -17 c28 -46 46 -137 34 -168 -8 -20
-25 -30 -79 -48 -38 -12 -89 -25 -114 -28 -42 -6 -47 -4 -52 17 -4 13 -7 42
-7 64 0 37 5 43 54 78 30 22 71 56 92 78 21 21 41 39 45 39 4 0 16 -15 27 -32z
m612 -138 c22 0 29 -6 34 -27 13 -50 -43 -72 -149 -58 -46 5 -58 11 -67 31 -8
16 -8 28 -2 34 11 11 122 30 142 24 8 -2 26 -4 42 -4z m-101 -160 c36 -12 72
-18 80 -15 15 6 31 -10 31 -32 0 -14 -54 -33 -94 -32 -17 0 -60 8 -96 17 -60
16 -65 19 -61 42 6 46 40 51 140 20z m-1354 -132 c52 -58 92 -131 123 -228 25
-77 43 -180 30 -180 -21 0 -87 83 -124 155 -56 109 -82 179 -92 248 -11 73 1
74 63 5z m1383 -1645 c2 -81 0 -163 -3 -182 l-7 -36 -15 40 c-9 25 -12 56 -8
85 3 26 -1 80 -11 130 -13 67 -14 91 -5 114 11 28 13 28 29 12 14 -14 18 -41
20 -163z m121 21 c4 -100 -13 -137 -23 -50 -20 181 -20 173 0 153 15 -14 20
-36 23 -103z m67 -196 c5 -47 3 -62 -21 -109 -15 -30 -35 -64 -43 -77 -14 -21
-16 -21 -32 -7 -17 16 -17 20 15 89 18 39 38 98 46 130 14 66 25 58 35 -26z
m64 -147 c0 -11 -21 -43 -46 -73 -25 -29 -60 -81 -77 -116 -31 -62 -42 -69
-60 -41 -7 12 4 35 43 92 61 89 118 157 131 157 5 0 9 -9 9 -19z m-310 -21 c0
-16 -4 -30 -10 -30 -11 0 -14 43 -3 53 11 12 13 8 13 -23z"/>
<path d="M3457 3176 c-63 -17 -66 -23 -16 -31 51 -9 109 -32 109 -44 0 -5 -7
-15 -16 -22 -9 -7 -20 -24 -25 -37 -8 -21 -14 -23 -45 -18 -33 7 -35 6 -25
-12 6 -11 35 -42 65 -69 59 -55 101 -67 184 -56 46 6 54 19 20 32 -20 7 -20 9
17 50 l38 42 29 -28 c17 -15 39 -46 51 -68 18 -33 22 -36 25 -19 6 38 -38 132
-82 178 -51 51 -102 80 -183 101 -68 18 -83 18 -146 1z m193 -130 c6 -8 10
-25 8 -38 -2 -18 -10 -24 -35 -26 -39 -4 -55 28 -27 59 20 23 37 24 54 5z"/>
<path d="M4260 2299 c0 -34 85 -182 123 -214 22 -19 44 -35 49 -35 14 0 38 59
38 94 0 62 -75 126 -187 161 -16 4 -23 2 -23 -6z"/>
</g>
</svg>
