<?xml version="1.0" standalone="no"?>
<!DOCTYPE svg PUBLIC "-//W3C//DTD SVG 20010904//EN"
 "http://www.w3.org/TR/2001/REC-SVG-20010904/DTD/svg10.dtd">
<svg version="1.0" xmlns="http://www.w3.org/2000/svg"
 width="760.000000pt" height="760.000000pt" viewBox="0 0 760.000000 760.000000"
 preserveAspectRatio="xMidYMid meet">
<metadata>
Created by potrace 1.14, written by Peter Selinger 2001-2017
</metadata>
<g transform="translate(0.000000,760.000000) scale(0.100000,-0.100000)"
fill="#000000" stroke="none">
<path d="M1144 7239 c-2 -4 -4 -313 -4 -686 1 -797 0 -886 -5 -891 -2 -3 0
-12 5 -22 5 -10 7 -20 4 -23 -4 -4 -6 -164 -3 -232 1 -9 0 -320 -1 -575 -1
-57 -3 -106 -5 -108 -2 -3 0 -12 5 -22 5 -10 7 -20 4 -23 -4 -4 -6 -164 -3
-232 1 -5 0 -111 -1 -235 -2 -299 6 -1440 11 -1512 2 -32 8 -58 12 -58 5 0 6
-3 4 -7 -5 -7 12 -116 27 -183 3 -14 10 -43 14 -65 5 -22 10 -44 11 -50 4 -12
5 -13 31 -105 31 -108 77 -232 121 -328 22 -46 39 -85 39 -87 0 -21 232 -399
260 -425 3 -3 24 -29 47 -57 91 -117 237 -270 323 -341 19 -15 43 -36 54 -47
12 -11 39 -34 61 -50 22 -17 45 -35 51 -40 6 -6 37 -28 70 -50 32 -22 61 -43
64 -46 10 -12 200 -120 277 -158 77 -38 257 -115 293 -126 3 -1 43 -14 90 -29
47 -15 93 -30 103 -32 9 -2 26 -6 37 -9 11 -3 30 -8 43 -11 12 -3 27 -6 32 -8
17 -5 101 -21 160 -31 17 -3 44 -7 60 -10 158 -27 584 -27 740 0 17 3 44 7 60
10 17 3 41 7 55 10 14 3 36 7 50 10 58 11 74 15 167 40 103 28 167 48 220 71
17 8 37 14 45 14 8 0 18 4 23 8 6 5 28 16 50 24 195 76 525 279 675 415 19 17
46 41 60 53 118 100 354 365 383 427 6 13 14 23 18 23 4 0 20 23 35 50 15 28
31 50 36 50 4 0 8 4 8 9 0 5 18 39 41 76 59 97 148 274 164 325 1 3 7 19 14
35 45 104 123 363 115 376 -3 5 -1 9 3 9 5 0 9 8 10 18 1 9 4 28 7 42 20 102
27 141 32 185 3 28 10 77 14 110 5 33 9 1066 9 2295 l1 2235 -2661 0 c-1463 0
-2663 -3 -2665 -6z"/>
</g>
</svg>
