<?xml version="1.0" standalone="no"?>
<!DOCTYPE svg PUBLIC "-//W3C//DTD SVG 20010904//EN"
 "http://www.w3.org/TR/2001/REC-SVG-20010904/DTD/svg10.dtd">
<svg version="1.0" xmlns="http://www.w3.org/2000/svg"
 width="700.000000pt" height="700.000000pt" viewBox="0 0 700.000000 700.000000"
 preserveAspectRatio="xMidYMid meet">
<metadata>
Created by potrace 1.14, written by Peter Selinger 2001-2017
</metadata>
<g transform="translate(0.000000,700.000000) scale(0.100000,-0.100000)"
fill="#000000" stroke="none">
<path d="M814 6987 c-2 -8 -3 -1026 -1 -2263 3 -2029 5 -2260 20 -2364 75
-518 247 -930 555 -1330 103 -133 360 -384 502 -489 383 -284 796 -452 1270
-517 170 -24 510 -24 680 0 476 65 894 235 1275 520 156 117 413 373 528 527
253 340 420 716 496 1119 47 252 46 201 46 2570 l0 2235 -2683 3 c-2220 2
-2683 0 -2688 -11z m5266 -522 l0 -425 -2580 0 -2580 0 0 425 0 425 2580 0
2580 0 0 -425z m-2640 -1755 l0 -1220 -1260 0 -1260 0 0 1220 0 1220 1260 0
1260 0 0 -1220z m2637 -517 c-3 -1900 0 -1790 -62 -2068 -107 -482 -339 -901
-694 -1255 -459 -458 -1012 -709 -1663 -755 l-98 -7 0 2911 0 2911 1260 0
1261 0 -4 -1737z m-2637 -1225 c0 -227 3 -964 7 -1637 l6 -1224 -104 7 c-649
44 -1214 300 -1670 755 -356 357 -585 772 -694 1258 -52 230 -57 297 -62 791
l-5 462 1261 0 1261 0 0 -412z"/>
<path d="M1040 6460 l0 -330 65 0 65 0 0 114 c0 110 1 114 29 150 l30 37 24
-43 c13 -24 48 -88 77 -143 28 -55 55 -104 59 -108 5 -4 38 -7 74 -5 l67 3
-105 194 c-58 106 -105 197 -105 203 0 5 45 65 100 133 l101 125 -73 0 -73 0
-100 -127 -100 -128 -3 128 -3 127 -64 0 -65 0 0 -330z"/>
<path d="M1970 6460 l0 -330 205 0 205 0 0 55 0 54 -137 3 -138 3 -3 273 -2
272 -65 0 -65 0 0 -330z"/>
<path d="M2950 6788 c0 -2 -40 -150 -88 -330 l-89 -328 63 0 63 0 10 38 c6 20
15 58 22 85 l11 47 89 0 88 0 10 -37 c6 -21 15 -59 22 -85 l11 -48 65 0 c59 0
64 2 58 19 -3 11 -43 158 -89 328 l-83 308 -81 3 c-45 2 -82 2 -82 0z m140
-370 c0 -15 -9 -18 -60 -18 -33 0 -60 4 -60 10 0 12 49 230 57 250 5 14 62
-205 63 -242z"/>
<path d="M3751 6477 c-46 -171 -86 -320 -89 -329 -4 -16 4 -18 60 -18 l64 0
20 83 20 82 89 0 90 0 21 -80 21 -80 61 -3 c34 -2 62 1 62 5 0 4 -39 153 -87
330 l-87 323 -80 0 -81 0 -84 -313z m199 59 c16 -70 30 -129 30 -132 0 -2 -30
-4 -66 -4 -58 0 -65 2 -60 18 8 26 56 239 56 248 0 25 13 -18 40 -130z"/>
<path d="M4580 6460 l0 -330 55 0 55 0 0 243 c0 142 4 236 9 227 5 -8 48 -117
96 -242 l88 -228 68 0 69 0 0 330 0 330 -55 0 -55 0 0 -237 c0 -130 -3 -233
-7 -229 -4 4 -46 109 -94 234 l-87 227 -71 3 -71 3 0 -331z"/>
<path d="M5460 6460 l0 -330 65 0 65 0 0 113 0 114 33 37 32 37 78 -151 78
-150 70 0 c38 0 69 2 69 4 0 2 -48 92 -106 200 -63 118 -102 201 -98 208 7 12
150 192 182 231 14 16 11 17 -59 17 l-74 -1 -95 -124 c-52 -68 -98 -124 -102
-124 -5 -1 -8 55 -8 124 l0 125 -65 0 -65 0 0 -330z"/>
<path d="M1517 5756 c-109 -39 -258 -171 -310 -276 -32 -65 -38 -159 -11 -181
11 -9 59 -16 143 -20 111 -5 133 -9 183 -33 58 -29 143 -93 146 -111 1 -5 -10
-14 -25 -19 -82 -26 -136 -105 -136 -198 0 -74 14 -95 192 -272 l140 -139
-145 -150 c-79 -82 -144 -155 -144 -162 0 -7 7 -18 16 -26 13 -10 20 -10 37 0
12 7 -72 -82 -187 -197 -116 -116 -213 -209 -217 -206 -15 9 -49 -20 -49 -41
0 -24 128 -155 151 -155 19 0 55 37 45 47 -10 11 65 82 81 76 19 -8 53 25 53
52 0 27 29 55 57 55 25 0 53 30 53 56 0 18 425 454 443 454 19 0 2 -34 -43
-86 -27 -31 -50 -65 -50 -75 0 -20 37 -59 56 -59 6 0 36 21 65 48 l54 47 -38
-45 c-52 -61 -57 -87 -23 -116 32 -28 45 -24 111 29 l50 41 -47 -52 c-55 -58
-59 -82 -22 -111 24 -19 28 -19 53 -6 14 8 38 25 54 37 l27 22 98 -95 c109
-108 137 -129 169 -129 12 0 56 -29 103 -69 83 -70 109 -81 184 -81 87 1 175
82 184 170 l5 50 31 -23 c17 -13 41 -27 52 -31 33 -10 122 -110 144 -161 22
-52 36 -55 79 -19 42 35 40 59 -7 83 -64 32 -141 99 -161 139 -20 40 -88 116
-338 381 -138 147 -151 163 -150 196 1 25 5 35 17 35 25 0 30 10 18 34 -10 21
-47 55 -60 56 -4 0 -8 -12 -10 -27 -2 -20 -9 -27 -28 -27 -21 -1 -25 3 -27 31
-1 27 2 32 19 30 33 -3 32 18 -2 52 -35 34 -50 33 -50 -6 0 -19 -4 -24 -16
-19 -9 3 -21 6 -27 6 -7 0 -13 11 -13 25 -2 20 3 25 22 25 15 0 24 6 24 15 0
23 -46 65 -70 65 -17 0 -19 -4 -14 -26 6 -23 4 -26 -15 -20 -11 3 -31 9 -42
12 -19 5 -7 21 97 125 65 65 126 119 135 119 19 0 49 31 49 50 0 20 110 129
124 124 14 -6 47 27 50 51 3 23 407 425 427 425 25 0 42 26 46 70 3 35 -1 45
-38 85 -37 40 -47 45 -84 45 -43 0 -75 -22 -75 -51 0 -15 -66 -84 -87 -90 -26
-8 -175 -153 -192 -187 -24 -45 -135 -157 -149 -149 -11 8 -58 -40 -48 -50 9
-10 -105 -123 -125 -123 -19 0 -53 -35 -45 -48 3 -4 -37 -50 -88 -101 -71 -71
-93 -87 -89 -69 3 15 -2 29 -12 38 -14 11 -21 8 -55 -25 -21 -20 -43 -36 -49
-34 -12 5 -277 283 -397 416 -115 130 -126 155 -133 321 -6 125 -8 136 -30
153 -27 22 -61 23 -114 5z m94 -166 c7 -134 17 -169 68 -244 39 -56 188 -221
354 -392 109 -113 125 -133 112 -144 -13 -11 -38 9 -161 129 -80 78 -168 157
-197 176 -29 18 -79 56 -112 85 -111 95 -237 139 -362 126 -76 -8 -98 7 -90
65 16 120 250 337 352 327 l30 -3 6 -125z m1632 66 c31 -35 53 -66 50 -70 -9
-9 -134 115 -127 126 10 16 21 8 77 -56z m27 29 c18 -19 31 -37 29 -40 -3 -2
-23 13 -44 35 -22 22 -35 40 -29 40 6 0 25 -16 44 -35z m-30 -110 c0 -5 -92
-102 -205 -215 l-205 -205 -47 48 -48 47 59 59 c58 59 60 60 87 45 57 -29 83
-20 164 59 67 64 75 76 75 109 0 20 -5 49 -12 63 -10 22 -8 29 17 55 l29 30
43 -42 c24 -23 43 -47 43 -53z m-150 -43 c0 -33 -8 -46 -64 -101 -55 -55 -67
-62 -96 -59 -48 5 -58 28 -29 67 23 31 24 32 29 10 3 -12 13 -27 23 -33 14 -9
24 -3 58 30 45 45 47 77 7 90 -20 6 -19 7 8 29 39 31 64 18 64 -33z m-72 -38
c-4 -21 -55 -60 -65 -51 -7 8 45 67 60 67 4 0 7 -7 5 -16z m-256 -311 c59 -58
68 -73 45 -73 -17 0 -129 114 -121 123 12 12 17 9 76 -50z m8 -82 c0 -4 -25
-31 -55 -61 l-55 -55 -47 48 -48 47 54 54 54 55 49 -40 c26 -23 48 -44 48 -48z
m-990 -42 c41 -26 310 -288 310 -303 0 -6 -62 50 -137 125 -174 171 -184 179
-240 179 -79 0 -133 -50 -140 -129 -5 -58 1 -66 176 -250 73 -78 129 -141 124
-141 -16 0 -290 284 -308 319 -21 42 -16 112 12 150 52 70 136 91 203 50z
m868 -111 c9 -22 -19 -2 -72 51 -35 35 -56 64 -51 71 4 7 27 -11 63 -51 32
-34 59 -66 60 -71z m-756 -74 c84 -81 154 -149 156 -153 1 -4 -20 -29 -48 -56
l-50 -49 -88 85 c-110 108 -138 129 -173 129 -27 0 -56 29 -72 73 -16 43 48
116 100 117 16 0 70 -45 175 -146z m667 102 l44 -45 -99 -94 -99 -94 -10 31
c-7 21 -19 34 -40 40 -16 6 -32 12 -34 13 -6 4 181 193 189 193 3 0 25 -20 49
-44z m-274 -157 c10 -15 -1 -23 -20 -15 -9 3 -13 10 -10 16 8 13 22 13 30 -1z
m83 -58 c3 -15 -3 -30 -14 -38 -15 -11 -21 -10 -40 8 -19 17 -21 26 -13 41 15
29 63 21 67 -11z m-119 -35 c10 -12 8 -13 -8 -9 -12 3 -21 9 -21 14 0 14 16
11 29 -5z m-394 -76 c38 -38 67 -70 64 -70 -2 0 -36 32 -74 70 -38 39 -67 70
-64 70 2 0 36 -31 74 -70z m225 37 c0 -1 -24 -25 -52 -52 l-53 -50 50 53 c46
48 55 57 55 49z m229 -21 c7 -8 8 -17 3 -20 -6 -3 -12 3 -15 14 -6 24 -4 25
12 6z m-89 -31 c13 -14 21 -25 18 -25 -2 0 -15 11 -28 25 -13 14 -21 25 -18
25 2 0 15 -11 28 -25z m-69 -12 c12 -15 12 -16 -4 -10 -10 4 -23 7 -28 7 -6 0
-7 5 -4 10 9 15 21 12 36 -7z m-66 -12 c10 -17 -12 -21 -25 -6 -10 12 -10 15
3 15 9 0 18 -4 22 -9z m270 -1 c3 -5 -1 -10 -9 -10 -9 0 -16 5 -16 10 0 6 4
10 9 10 6 0 13 -4 16 -10z m-325 -24 c0 -2 -8 -10 -17 -17 -16 -13 -17 -12 -4
4 13 16 21 21 21 13z m132 -21 c13 -28 -2 -55 -31 -55 -39 0 -56 51 -23 69 27
16 42 13 54 -14z m47 1 c8 -10 8 -16 -1 -24 -10 -8 -13 -4 -14 14 -2 28 -1 29
15 10z m183 -33 c-63 -75 -382 -386 -389 -379 -10 9 400 425 420 426 5 0 -9
-21 -31 -47z m-323 -3 c6 -19 22 -35 40 -43 23 -10 28 -16 21 -27 -8 -12 -18
-6 -56 31 -26 26 -44 52 -40 58 12 19 24 12 35 -19z m191 -21 c0 -5 -21 -32
-46 -59 -38 -40 -50 -48 -61 -38 -12 9 -5 20 38 64 48 49 69 59 69 33z m249
-31 c-16 -31 -378 -392 -409 -408 -18 -10 -11 3 26 46 56 64 380 384 389 384
3 0 0 -10 -6 -22z m-639 -1 c0 -1 -57 -58 -127 -127 l-128 -125 125 128 c116
118 130 132 130 124z m175 -17 c10 -11 16 -20 13 -20 -3 0 -13 9 -23 20 -10
11 -16 20 -13 20 3 0 13 -9 23 -20z m-167 -59 c3 -8 -1 -12 -9 -9 -7 2 -15 10
-17 17 -3 8 1 12 9 9 7 -2 15 -10 17 -17z m700 -33 c-80 -102 -430 -437 -400
-382 13 23 415 424 426 424 4 0 -7 -19 -26 -42z m-748 19 c0 -2 -12 -14 -27
-28 l-28 -24 24 28 c23 25 31 32 31 24z m490 0 c0 -2 -19 -21 -42 -42 l-43
-40 40 43 c36 39 45 47 45 39z m-365 -42 c0 -27 -3 -30 -30 -30 -21 0 -31 5
-33 18 -6 33 6 49 35 45 24 -3 28 -8 28 -33z m-90 -17 c8 -25 18 -36 43 -44
l32 -10 -25 -24 c-24 -22 -25 -22 -25 -4 0 26 -36 64 -60 64 -24 0 -25 8 -3
32 22 25 27 23 38 -14z m1038 -283 c84 -88 133 -145 110 -127 -55 43 -393 392
-393 406 0 13 90 -75 283 -279z m-1125 256 c3 -8 -1 -12 -9 -9 -7 2 -15 10
-17 17 -3 8 1 12 9 9 7 -2 15 -10 17 -17z m642 -4 c0 -2 -19 -21 -42 -42 l-43
-40 40 43 c36 39 45 47 45 39z m-700 -20 c0 -2 -10 -12 -22 -23 l-23 -19 19
23 c18 21 26 27 26 19z m138 -26 c5 -32 -23 -54 -49 -40 -19 10 -26 49 -12 63
4 4 19 6 33 4 18 -2 26 -10 28 -27z m-98 -18 c0 -25 31 -53 58 -53 l25 0 -23
-25 -24 -25 -12 30 c-7 16 -26 35 -41 42 -39 17 -38 16 -18 38 19 21 35 18 35
-7z m1190 -342 c19 -27 30 -57 30 -78 0 -75 -65 -147 -143 -160 -65 -10 -111
22 -295 207 -95 95 -170 175 -168 178 3 2 84 -72 181 -166 97 -93 192 -178
211 -187 90 -43 194 29 194 134 0 43 -37 97 -125 181 -26 25 -92 95 -148 155
-87 95 -79 88 67 -55 92 -91 180 -185 196 -209z m-229 154 c216 -216 230 -244
153 -304 -48 -38 -86 -28 -153 37 -45 44 -61 68 -67 98 -6 32 -27 59 -118 152
l-111 114 50 44 c27 24 53 43 58 41 5 -1 89 -83 188 -182z m-1046 157 c0 -18
-20 -15 -23 4 -3 10 1 15 10 12 7 -3 13 -10 13 -16z m81 -48 c8 -32 -15 -59
-44 -50 -43 14 -33 76 13 76 18 0 26 -7 31 -26z m-59 -73 c13 -6 30 -8 36 -4
20 12 -79 -96 -132 -143 -44 -40 -51 -43 -51 -25 0 29 -35 61 -67 61 -25 0
-20 8 67 95 l95 96 13 -34 c8 -19 25 -40 39 -46z m803 -76 c19 -19 32 -35 29
-35 -3 0 -20 16 -39 35 -19 19 -32 35 -29 35 3 0 20 -16 39 -35z m-983 -81 c9
-24 -10 -49 -38 -49 -24 0 -36 23 -25 51 7 19 55 18 63 -2z m-60 -74 c37 -17
39 -22 17 -44 -22 -22 -27 -20 -44 17 -12 25 -22 33 -49 35 l-34 3 34 35 34
35 5 -33 c4 -25 13 -37 37 -48z m94 -3 c-1 -12 -15 -9 -19 4 -3 6 1 10 8 8 6
-3 11 -8 11 -12z m-143 -49 c-4 -26 -30 -43 -52 -35 -21 8 -21 53 1 66 25 13
55 -5 51 -31z m-84 -46 c4 -7 20 -15 36 -19 l29 -8 -34 -40 -35 -40 -46 49
-45 49 38 39 38 39 6 -29 c3 -16 9 -34 13 -40z m117 -15 c-1 -12 -15 -9 -19 4
-3 6 1 10 8 8 6 -3 11 -8 11 -12z m-131 -131 c-14 -14 -136 107 -125 124 5 8
28 -8 71 -51 43 -43 60 -67 54 -73z"/>
<path d="M4921 5119 c-51 -15 -153 -122 -180 -189 l-23 -55 -81 -1 c-208 -2
-413 -127 -502 -307 -71 -143 -67 -271 13 -434 l35 -71 -60 -59 c-117 -115
-200 -253 -245 -408 -20 -70 -23 -102 -23 -260 0 -202 10 -256 70 -382 63
-134 145 -233 282 -340 86 -67 280 -185 391 -237 34 -16 62 -36 62 -43 0 -18
-1 -18 -88 26 -87 44 -183 74 -288 92 -63 11 -77 11 -116 -4 -24 -10 -61 -35
-82 -56 -32 -32 -40 -49 -44 -89 -9 -94 45 -156 163 -187 112 -29 230 -14 347
43 l57 28 37 -31 37 -31 -41 -84 c-58 -119 -75 -201 -70 -330 4 -88 9 -115 32
-165 71 -156 184 -192 282 -90 53 54 74 117 81 231 9 153 -31 294 -128 457
l-23 37 30 31 30 30 105 -50 c108 -52 231 -91 284 -91 129 0 223 109 194 223
-38 151 -277 184 -487 67 l-54 -29 -60 30 c-47 24 -58 34 -53 47 17 44 35 130
35 168 l0 41 58 7 c153 17 305 139 385 308 53 111 67 163 67 257 0 219 -164
412 -364 428 -48 4 -77 0 -134 -19 l-72 -25 -5 21 c-2 12 -6 69 -10 127 l-5
105 49 23 c139 63 241 221 212 329 -10 37 -51 84 -83 94 -7 3 5 26 33 64 25
32 69 94 98 137 l52 78 52 -8 c82 -12 216 -7 287 11 92 23 238 97 299 152 65
59 78 81 58 101 -18 18 -41 8 -102 -44 -99 -85 -249 -130 -399 -120 -50 4
-100 9 -112 12 l-21 7 25 61 c33 81 42 199 18 245 -48 93 -199 153 -305 121z
m79 -105 c66 -20 114 -65 130 -122 9 -35 8 -55 -5 -104 -8 -34 -18 -64 -20
-66 -2 -3 -67 25 -143 62 -76 36 -144 66 -150 66 -23 0 31 133 66 160 30 24
52 25 122 4z m-319 -249 c3 -2 -3 -62 -13 -132 -9 -70 -20 -176 -23 -234 l-7
-106 -71 -23 c-40 -12 -118 -46 -174 -75 l-103 -52 -29 46 c-47 75 -66 145
-66 246 0 78 4 97 27 140 23 45 70 96 121 134 47 36 142 60 238 60 53 1 98 -1
100 -4z m224 -94 c63 -33 120 -61 127 -63 14 -5 -36 -90 -120 -202 -59 -78
-60 -78 -111 -82 l-51 -4 0 52 c0 61 20 327 25 346 3 6 7 12 10 12 3 0 57 -27
120 -59z m-265 -538 c-1 -65 -2 -70 -43 -116 l-43 -49 -54 21 c-55 21 -150 80
-150 93 0 16 237 116 278 118 8 0 12 -20 12 -67z m248 45 c62 -67 18 -177 -84
-213 -38 -13 -39 -13 -45 13 -4 15 -7 47 -8 70 -1 38 5 51 45 98 26 30 52 54
58 54 7 0 22 -10 34 -22z m-507 -272 l87 -42 -49 -65 c-151 -196 -229 -388
-229 -561 0 -201 80 -349 248 -459 70 -46 192 -99 260 -114 l32 -7 0 -76 c0
-134 6 -131 -124 -65 -371 190 -576 410 -633 678 -22 106 -19 302 6 410 35
145 111 279 211 369 l41 36 32 -30 c18 -17 71 -50 118 -74z m265 -68 c2 -3 9
-73 14 -156 l10 -150 -59 -57 c-33 -31 -72 -74 -87 -96 -25 -36 -26 -41 -12
-55 21 -22 47 -7 113 64 l51 55 23 -314 c12 -173 24 -322 26 -331 3 -15 -4
-14 -60 7 -143 54 -272 163 -325 277 -94 202 -36 454 163 709 l49 61 44 -5
c25 -2 47 -7 50 -9z m360 -315 c34 -11 67 -35 110 -77 67 -67 107 -141 122
-226 28 -152 -68 -369 -191 -431 -46 -24 -141 -41 -179 -33 -31 6 -27 -22 -58
399 -11 149 -22 289 -25 313 -5 41 -3 44 28 57 44 19 133 18 193 -2z m247
-1174 c59 -16 97 -56 104 -108 l6 -44 -53 7 c-29 4 -73 14 -99 22 -75 25 -201
86 -195 95 9 15 97 38 149 38 28 1 67 -4 88 -10z m-952 -23 c52 -13 126 -38
164 -56 l70 -33 -40 -13 c-22 -7 -76 -13 -120 -13 -125 -1 -208 41 -230 117
-6 20 -3 22 28 22 19 0 77 -11 128 -24z m498 -52 c2 -2 -4 -13 -14 -24 -18
-19 -18 -19 -46 1 -24 17 -27 24 -19 40 10 18 12 18 43 3 18 -9 34 -18 36 -20z
m-40 -246 c87 -140 128 -328 99 -463 -15 -72 -37 -81 -87 -39 -73 61 -114 206
-94 336 11 73 48 188 61 188 4 0 14 -10 21 -22z"/>
<path d="M5628 4514 c-57 -30 -55 -6 -59 -824 l-4 -755 21 -3 c13 -2 33 8 51
27 l31 30 7 723 c7 752 7 810 -10 814 -5 2 -22 -4 -37 -12z"/>
<path d="M5567 2762 c-24 -26 -22 -87 3 -112 42 -42 110 -6 110 58 0 61 -75
96 -113 54z"/>
<path d="M1670 3153 c-83 -9 -136 -26 -203 -65 l-72 -43 87 -7 c140 -12 260
-43 349 -89 102 -53 139 -92 192 -197 53 -107 61 -183 25 -251 -13 -25 -30
-49 -39 -54 -17 -11 -29 -3 -299 188 -63 45 -121 85 -128 89 -10 6 -12 -3 -6
-46 16 -133 46 -231 115 -367 38 -74 67 -143 64 -152 -5 -16 -167 -129 -233
-163 -25 -13 -32 -22 -27 -36 4 -13 -1 -22 -15 -30 -16 -9 -20 -18 -16 -34 5
-20 -3 -28 -57 -57 -61 -34 -62 -35 -65 -82 l-3 -48 63 32 c35 17 77 42 93 54
17 13 46 30 67 38 25 10 47 32 71 69 45 69 66 90 131 132 30 19 57 40 61 46 5
8 13 6 26 -6 19 -17 19 -15 19 82 0 114 -19 212 -54 290 l-25 53 48 -37 c89
-70 291 -162 326 -148 25 9 17 31 -20 50 -20 11 -34 22 -33 25 2 4 14 36 28
73 17 47 31 68 45 72 40 10 155 19 155 12 0 -23 -26 -47 -61 -56 -32 -9 -38
-14 -30 -24 9 -10 5 -17 -14 -30 -14 -9 -25 -23 -25 -31 0 -12 25 -14 158 -12
166 2 195 -4 207 -43 5 -15 15 -20 44 -20 30 0 52 -10 104 -50 80 -61 86 -69
131 -187 48 -127 53 -135 147 -248 59 -72 95 -127 126 -195 24 -52 59 -125 78
-161 19 -37 35 -76 35 -86 0 -44 -74 -80 -126 -63 -27 9 -41 25 -70 81 -33 62
-91 129 -113 129 -13 0 -61 -41 -61 -52 0 -6 27 -39 60 -75 60 -64 79 -113 44
-113 -8 0 -77 59 -151 132 -127 122 -137 130 -150 112 -7 -10 -10 -25 -7 -34
17 -38 10 -55 -23 -58 -18 -2 -41 1 -51 7 -16 8 -23 6 -33 -10 -17 -24 -80
-48 -129 -49 -81 0 -179 51 -228 119 -17 23 -48 85 -71 138 -41 96 -76 152
-87 140 -13 -13 40 -227 77 -314 21 -51 39 -99 39 -108 0 -8 -13 -42 -30 -74
-16 -33 -37 -87 -47 -121 -14 -53 -15 -63 -2 -71 27 -17 36 -9 54 49 20 64 90
222 100 222 3 0 20 -10 36 -22 40 -30 101 -29 191 1 37 12 80 21 95 19 25 -3
29 -9 40 -53 16 -71 15 -127 -3 -217 -19 -95 -14 -127 33 -216 67 -127 119
-173 214 -188 39 -7 42 -6 34 12 -4 10 -17 43 -27 73 -18 51 -18 56 -2 108 10
31 35 82 55 114 37 57 65 133 71 194 3 33 0 32 141 64 118 27 173 60 199 118
l20 45 -37 56 c-33 52 -59 105 -130 259 -14 29 -58 87 -104 136 -90 95 -105
121 -133 221 -16 58 -29 81 -76 134 -31 35 -70 79 -85 97 l-28 34 44 63 c55
81 71 137 65 231 -9 136 -113 295 -263 402 -50 36 -161 82 -171 72 -2 -2 17
-30 41 -63 81 -107 120 -284 95 -432 -14 -87 -44 -131 -76 -114 -10 6 -26 13
-36 16 -11 3 -20 24 -28 63 -33 169 -83 268 -181 364 -89 86 -182 140 -280
164 -59 13 -190 17 -279 8z m150 -52 c0 -5 -8 -18 -17 -29 -14 -16 -23 -18
-40 -12 -27 11 -30 37 -5 43 31 8 62 7 62 -2z m133 -12 l38 -10 -29 -34 c-16
-18 -32 -39 -34 -47 -4 -10 -11 -10 -34 4 -43 25 -50 42 -31 72 19 29 33 31
90 15z m144 -67 l52 -38 -36 -52 c-20 -29 -42 -52 -48 -52 -7 0 -33 19 -59 41
-36 32 -45 46 -41 63 6 19 62 76 75 76 3 0 28 -18 57 -38z m494 -25 c-12 -12
-28 -2 -42 25 -11 20 -11 20 20 2 18 -11 27 -22 22 -27z m69 -57 c9 -17 7 -24
-12 -40 -13 -11 -26 -19 -30 -20 -11 0 -21 47 -14 65 8 22 43 18 56 -5z m-429
-37 c32 -36 51 -83 39 -98 -22 -27 -119 -87 -129 -80 -12 7 -51 79 -51 94 0 5
21 34 46 65 48 59 58 61 95 19z m480 -43 c32 -18 24 -47 -16 -54 -38 -7 -75 0
-75 14 0 9 50 49 63 50 5 0 17 -5 28 -10z m44 -99 c13 -41 -3 -52 -69 -49 -53
3 -61 5 -61 23 0 38 118 62 130 26z m-447 -4 c19 -23 35 -103 24 -124 -11 -20
-101 -53 -145 -53 -23 0 -27 5 -28 30 -1 17 -2 35 -3 41 -1 9 121 117 135 118
4 1 11 -5 17 -12z m452 -117 c15 -27 6 -38 -35 -46 -51 -9 -110 7 -110 31 0
22 29 33 92 34 33 1 45 -4 53 -19z m-68 -103 c55 -15 68 -25 48 -37 -20 -13
-86 -12 -132 1 -27 7 -38 16 -38 29 0 33 23 34 122 7z m-928 -158 c28 -49 49
-114 61 -182 6 -38 6 -38 -17 -23 -49 32 -138 219 -138 288 l0 32 34 -33 c19
-18 46 -55 60 -82z m926 -1113 c-1 -110 -2 -119 -16 -101 -10 14 -13 31 -9 57
4 20 1 62 -6 92 -6 29 -8 67 -5 82 7 28 8 28 22 10 10 -15 14 -52 14 -140z
m84 60 c3 -30 2 -65 -2 -77 -7 -19 -10 -13 -15 32 -9 73 -9 99 2 99 4 0 11
-24 15 -54z m46 -164 c0 -57 -45 -149 -65 -132 -11 9 -9 20 11 66 13 30 27 72
30 95 8 51 24 32 24 -29z m3 -165 c-22 -29 -45 -64 -51 -79 -12 -29 -26 -36
-37 -18 -6 10 32 72 89 144 48 59 46 16 -1 -47z m-173 52 c0 -11 -4 -18 -10
-14 -5 3 -7 12 -3 20 7 21 13 19 13 -6z"/>
<path d="M2441 2238 c-32 -7 -40 -12 -30 -19 8 -5 19 -9 26 -9 6 0 24 -5 38
-10 l27 -10 -21 -33 c-14 -22 -27 -31 -41 -29 -31 5 -14 -24 38 -64 44 -34 94
-44 136 -28 15 6 15 7 1 18 -14 10 -12 15 14 40 l30 28 32 -46 c18 -25 34 -44
36 -43 1 2 -2 19 -7 39 -17 59 -63 113 -122 141 -66 31 -101 37 -157 25z m129
-93 c16 -19 6 -45 -19 -45 -23 0 -35 28 -20 46 15 18 24 18 39 -1z"/>
<path d="M3000 1619 c0 -19 53 -114 78 -141 30 -33 47 -35 62 -9 18 34 11 66
-20 98 -31 32 -120 70 -120 52z"/>
</g>
</svg>
