<?xml version="1.0" encoding="utf-8"?>
<!-- Generator: Adobe Illustrator 27.3.1, SVG Export Plug-In . SVG Version: 6.00 Build 0)  -->
<svg version="1.1" id="Laag_2" xmlns="http://www.w3.org/2000/svg" xmlns:xlink="http://www.w3.org/1999/xlink" x="0px" y="0px"
	 viewBox="0 0 595.28 841.89" style="enable-background:new 0 0 595.28 841.89;" xml:space="preserve">
<style type="text/css">
	.st0{fill:#010202;}
</style>
<g>
	<g>
		<path class="st0" d="M261.69,403.06c1.12-1.37,2.25-2.74,3.4-4.08c0.56-0.66,1.13-1.3,1.7-1.96c0.16-0.19,1.59-1.78,0.38-0.45
			c2.17-2.39,4.43-4.71,6.74-6.95c2.17-2.1,4.4-4.14,6.69-6.11c-1.75,1.51,0.69-0.53,1.27-1c1.22-0.97,2.45-1.91,3.71-2.83
			c1.08-0.79,2.17-1.55,3.28-2.3c0.61-0.41,3.69-2.26,1.57-1.04c2.13-1.23,4.24-2.47,6.43-3.57c1.05-0.53,2.12-1.01,3.18-1.51
			c0.37-0.18,1.8-0.76-0.05,0c0.39-0.16,0.78-0.32,1.18-0.47c2.17-0.83,4.36-1.6,6.6-2.24c1.01-0.29,2.03-0.55,3.06-0.79
			c0.5-0.12,1.01-0.23,1.52-0.34c-0.13,0.03-1.31,0.24-0.33,0.07c2.09-0.36,4.19-0.64,6.3-0.8c1.8-0.13,3.61-0.18,5.42-0.15
			c0.95,0.02,1.89,0.07,2.84,0.12c0.17,0.01,1.63,0.13,0.81,0.05c-0.74-0.07,1.19,0.15,1.14,0.14c7.22,0.98,14.2,3.36,20.58,6.86
			c2.48,1.36,5.34,3.29,8.16,5.53c2.86,2.27,5.54,4.75,8.05,7.41c2.52,2.68,4.86,5.53,7.01,8.52c1.81,2.52,4.2,6.3,5.25,8.24
			c3.49,6.44,6.18,13.33,7.98,20.43c0.88,3.46,1.54,6.98,1.96,10.53c0.1,0.87,0.19,1.75,0.26,2.63c0.07,0.84,0-0.13-0.01-0.25
			c0.03,0.43,0.05,0.87,0.07,1.31c0.05,1.25,0.08,2.5,0.05,3.74c-0.09,3.61-0.58,7.21-1.21,10.75c-0.18,1.03-0.38,2.05-0.59,3.07
			c-0.12,0.57-0.26,1.14-0.37,1.71c-0.23,1.19,0.54-2.16-0.06,0.23c-0.61,2.42-1.26,4.82-1.99,7.2c-0.82,2.65-1.72,5.28-2.7,7.87
			c-0.51,1.35-1.05,2.7-1.61,4.04c-0.28,0.68-0.58,1.36-0.87,2.03c-0.54,1.22-0.69,2.08-0.05,0.17c-0.94,2.8-2.74,5.58-4.2,8.15
			c-0.77,1.36-1.57,2.7-2.39,4.02c-0.36,0.58-0.74,1.16-1.11,1.74c-1.27,1.99,1.52-2.11-0.17,0.26c-1.87,2.6-3.82,5.12-5.89,7.56
			c-1.97,2.31,1.35-1.38,0.14-0.14c-0.56,0.58-1.11,1.18-1.68,1.75c-1.14,1.16-2.32,2.29-3.54,3.37c-0.86,0.77-3.07,2.02,0.13-0.07
			c-0.68,0.44-1.29,1.05-1.93,1.54c-1.32,1.02-2.67,1.97-4.04,2.91c-0.21,0.15-0.97,0.52-1.05,0.69c0.05-0.11,2.52-1.51,0.9-0.56
			c-0.73,0.42-1.45,0.87-2.19,1.28c-1.5,0.84-3.02,1.62-4.58,2.34c-0.69,0.32-3.26,1.24-0.58,0.29c-0.73,0.26-1.43,0.57-2.16,0.84
			c-1.79,0.66-3.61,1.25-5.45,1.77c-0.89,0.25-1.78,0.48-2.67,0.69c-0.44,0.1-2.56,0.56-1.64,0.38c0.94-0.19-1.7,0.29-2.06,0.34
			c-1.08,0.17-2.17,0.31-3.26,0.43c-8.61,0.95-16.67,0.49-24.82-0.99c-34.7-6.3-71.75-25.48-88.9-56.84
			c-3.75-6.85-6.54-14.25-8.39-21.83c-1.97-8.05-2.72-14.97-2.68-22.58c0.04-8.31,1.04-16.61,2.79-24.74
			c0.12-0.54,0.23-1.07,0.36-1.61c-0.32,1.4,0,0.02,0.06-0.22c0.28-1.08,0.55-2.16,0.84-3.23c0.59-2.18,1.24-4.35,1.93-6.5
			c1.43-4.44,3.06-8.82,4.86-13.12c0.46-1.11,0.94-2.21,1.42-3.3c0.24-0.55,0.49-1.1,0.74-1.65c-0.17,0.37-0.81,1.68,0.05-0.1
			c1.07-2.23,2.16-4.44,3.31-6.63c2.37-4.52,4.91-8.96,7.6-13.3c1.39-2.24,2.83-4.45,4.29-6.65c-1.18,1.76,0.53-0.75,0.91-1.29
			c0.88-1.25,1.76-2.5,2.66-3.73c3.03-4.16,6.21-8.21,9.43-12.23c12.07-15.09,24.52-29.87,36.92-44.69
			c25.54-30.54,51.25-61.13,73.27-94.36c9.14-13.78,17.59-28.18,23.74-43.57c4.69-11.72,8.06-24.61,6.27-37.3
			c-1.6-11.35-8.67-20.13-18.34-25.82c-9.02-5.31-20.51-9.01-31.11-8.51c-18.79,0.89-33.83,15.95-42.28,31.62
			c-10.11,18.74-14.31,40.39-17.12,61.3c-3.63,27.05-4.52,54.45-4.58,81.71c-0.07,31.03,1.14,62.06,2.87,93.04
			c1.74,31.2,4.05,62.37,6.5,93.52c2.09,26.56,4.35,53.11,6.17,79.7c0.05,0.71,0.1,1.43,0.15,2.14c0.09,1.33-0.09-1.35,0.03,0.5
			c0.1,1.47,0.19,2.94,0.29,4.41c0.17,2.66,0.33,5.31,0.48,7.97c0.28,4.86,0.52,9.71,0.71,14.57c0.48,12.33,0.67,24.68-1.63,36.87
			c-0.19,1.01-0.4,2.01-0.61,3.01c-0.21,0.98,0.06-0.22,0.09-0.35c-0.12,0.48-0.24,0.97-0.36,1.45c-0.51,2-1.09,3.99-1.74,5.95
			c-0.55,1.67-1.15,3.33-1.8,4.97c-0.34,0.85-0.69,1.7-1.06,2.54c-0.18,0.42-0.37,0.83-0.55,1.24c0.42-0.96,0.75-1.54,0.09-0.25
			c-0.75,1.47-1.5,2.94-2.32,4.38c-0.43,0.75-0.87,1.49-1.32,2.23c-0.28,0.46-2.04,3.11-0.91,1.46c1.11-1.61-0.31,0.43-0.62,0.85
			c-0.49,0.67-0.99,1.34-1.5,2c-0.51,0.65-1.02,1.3-1.55,1.93c-0.37,0.45-2.52,2.86-0.92,1.12c1.54-1.68-0.17,0.17-0.57,0.58
			c-0.56,0.58-1.12,1.15-1.7,1.71c-0.57,0.56-1.15,1.1-1.74,1.64c-0.43,0.39-2.84,2.47-1,0.92c1.76-1.48-0.14,0.1-0.59,0.46
			c-0.61,0.49-1.23,0.96-1.86,1.43c-1.25,0.93-2.53,1.8-3.82,2.67c-2.37,1.61,1.66-0.95,0.05-0.03c-0.67,0.38-1.32,0.78-1.99,1.16
			c-1.33,0.75-2.68,1.47-4.05,2.14c-1.06,0.52-3.35,1.04-4.13,1.9c0.08-0.09,2.4-0.96,0.85-0.37c-0.35,0.13-0.7,0.28-1.05,0.42
			c-0.7,0.27-1.4,0.54-2.11,0.79c-2.8,1.01-5.65,1.87-8.53,2.6c-1.42,0.36-2.86,0.67-4.3,0.97c1.61-0.34,0.8-0.16-0.21,0.02
			c-0.8,0.14-1.61,0.27-2.41,0.38c-5.57,0.81-11.21,1.12-16.83,0.89c-1.35-0.05-2.69-0.15-4.04-0.26c-0.25-0.02-0.5-0.05-0.75-0.07
			c-0.99-0.08,1.38,0.17,0.4,0.04c-0.73-0.1-1.47-0.18-2.2-0.28c-2.52-0.36-5.02-0.83-7.49-1.44c-4.51-1.11-8.94-2.66-13.06-4.82
			c-0.48-0.25-0.94-0.52-1.41-0.77c-1-0.54,1.2,0.82-0.1-0.05c-0.9-0.61-1.81-1.18-2.68-1.84c-1.53-1.16-2.97-2.44-4.26-3.86
			c-0.57-0.63-1.11-1.29-1.62-1.98c-0.43-0.59-1.84-3.21-0.87-1.2c-1.59-3.31-2.99-6.84-3.27-10.54c0.1,1.26,0.06-0.62,0.08-1.02
			c0.03-0.37,0.51-2.82,0.14-1.49c-0.43,1.57,0.33-0.99,0.41-0.97c0.31,0.07-1.19,2.22-0.42,0.98c1.05-1.72-1.41,1.93-0.7,0.96
			c1.6-2.2-0.7,0.68-0.54,0.52c1.8-1.77-2.36,2.28-0.61,0.5c0.17-0.17,0.41-0.27,0.59-0.42c1.21-1.01-1.22,0.77-1.29,0.79
			c0.59-0.15,1.32-0.7,1.87-1c1.89-1.04-2.32,0.8-0.33,0.12c0.48-0.16,0.95-0.35,1.42-0.51c1.04-0.35,2.1-0.59,3.16-0.88
			c2.13-0.58-2.25,0.27,0.23-0.04c0.44-0.06,0.89-0.11,1.33-0.18c0.63-0.09-1.76-0.31-0.17,0.01c1.19,0.24,2.43,0.34,3.63,0.52
			c2.86,0.43,5.72,0.91,8.57,1.44c5.1,0.95,10.16,2.07,15.18,3.37c9.13,2.37,18.11,5.36,26.79,9.08
			c14.55,6.24,27.56,14.23,39.34,24.98c19.51,17.8,31.8,39.44,37.67,65.03c1.24,5.39,2.15,10.86,2.72,16.37
			c0.13,1.23,0.22,2.46,0.33,3.69c0.16,1.83-0.04-1,0.02,0.3c0.04,0.8,0.09,1.6,0.12,2.39c0.1,2.47,0.14,4.95,0.1,7.42
			c-0.07,4.45-0.38,8.9-0.97,13.31c-0.27,2-0.6,3.99-1,5.97c-0.09,0.47-0.2,0.93-0.3,1.4c-0.35,1.74,0.51-1.9,0.16-0.67
			c-0.26,0.91-0.46,1.83-0.72,2.74c-0.22,0.76-0.45,1.51-0.69,2.25c-0.24,0.73-0.5,1.46-0.78,2.18c-0.19,0.5-1.43,3.15-0.68,1.71
			c0.83-1.59-0.49,0.87-0.66,1.16c-0.31,0.55-0.76,1.08-1,1.66c1.17-2.77,0.95-1.46,0.14-0.34c-1.68,2.3,1.83-2.1,0.38-0.41
			c-1.43,1.67,0.1-0.05,0.93-0.72c-0.22,0.18-0.46,0.37-0.7,0.53c-1.33,0.86,1.54-0.87,1.43-0.86c-0.29,0.02-1.21,0.62-1.46,0.79
			c-1,0.67,2.71-0.76,0.34-0.22c-2.04,0.47,0.4-0.13,0.47-0.02c-0.04-0.06-1.43,0.18-1.57,0.19c-0.53,0.04-1.06,0-1.59,0.02
			c-1.75,0.07,1.02,0.33-0.34-0.04c-2.31-0.63-4.34-1.29-6.51-2.34c-1.32-0.64,0.54,0.42-0.39-0.23c-0.53-0.37-1.08-0.73-1.6-1.12
			c-1.1-0.82-2.15-1.71-3.14-2.65c-2.2-2.08-4.16-4.41-5.91-6.88c-2.25-3.17-3.12-4.74-4.65-7.98c-7.47-15.91-8.93-33.26-6.49-50.36
			c1.53-10.73,4.76-20.96,9.29-31.26c1.61-3.66,4.43-8.95,6.92-13.14c1.19-2.01,2.47-3.96,3.72-5.93c0.9-1.42-1.08,1.53-0.11,0.16
			c0.35-0.49,0.69-1,1.04-1.49c0.78-1.1,1.58-2.19,2.39-3.27c1.33-1.76,2.7-3.49,4.11-5.18c0.74-0.89,1.5-1.76,2.25-2.63
			c0.27-0.31,0.54-0.69,0.85-0.96c-2.45,2.15-0.37,0.42,0.15-0.12c0.79-0.84,9.12-9.49,9.56-9.12c0.01,0.01-2.44,2.01-0.62,0.52
			c0.31-0.25,0.62-0.51,0.93-0.76c0.82-0.66,1.65-1.32,2.49-1.96c1.75-1.34,3.53-2.64,5.35-3.88c0.74-0.5,1.48-0.99,2.22-1.48
			c2.39-1.58-1.75,1.02,0.7-0.44c1.8-1.07,3.61-2.12,5.47-3.11c1.59-0.85,3.21-1.66,4.84-2.43c0.75-0.35,1.5-0.7,2.26-1.04
			c0.43-0.19,0.86-0.37,1.29-0.56c-2.54,1.13-0.3,0.14,0.17-0.05c3.25-1.29,6.56-2.43,9.93-3.38c1.57-0.44,3.15-0.85,4.73-1.21
			c0.7-0.16,2.85-0.59,0.91-0.22c0.92-0.18,1.85-0.34,2.78-0.49c3.17-0.51,6.38-0.84,9.59-0.97c3.01-0.12,6.02-0.04,9.02,0.21
			c1.04,0.08-1.29-0.16-0.26-0.03c0.35,0.05,0.71,0.08,1.06,0.13c0.61,0.09,1.22,0.17,1.83,0.27c1.44,0.24,2.87,0.53,4.28,0.89
			c2.52,0.63,4.99,1.45,7.36,2.5c1.06,0.47,2.08,1,3.1,1.54c1.53,0.81-0.26-0.24,0.51,0.3c0.54,0.38,1.1,0.73,1.64,1.12
			c1.85,1.35,3.55,2.9,5.03,4.64c0.68,0.8,1.32,1.64,1.9,2.51c0.31,0.47,0.59,0.95,0.88,1.43c-0.73-1.22-0.11-0.2,0.17,0.41
			c0.95,2.12,1.67,4.29,2.08,6.58c0.11,0.59,0.18,1.19,0.26,1.79c0.26,1.9,0.07-0.65,0.05,0.43c-0.03,1.42,0.02,2.82-0.12,4.24
			c-0.08,0.77-0.23,1.52-0.33,2.28c-0.16,1.24,0.63-1.67-0.15,0.38c-0.11,0.3-0.26,0.64-0.34,0.94c-0.3,1.12-0.7-0.31,0.51-1.05
			c-0.12,0.07-0.25,0.5-0.33,0.62c-0.96,1.57,0.62-0.83,0.8-1.08c-0.17,0.24-0.34,0.5-0.54,0.72c-1.14,1.3,1.43-1.53,1.29-1.39
			c-1.83,1.82,2-1.5,0.83-0.62c-1.73,1.3,1.21-0.6,0.86-0.47c-0.22,0.08-1.62,1.04-1.79,0.91c-0.5-0.39,2.57-0.87,1.14-0.51
			c-0.29,0.07-0.59,0.2-0.88,0.29c-0.61,0.19-1.23,0.3-1.84,0.49c1.43-0.43,1.22-0.18,0.03-0.04c-0.76,0.09-1.52,0.19-2.28,0.24
			c-1.43,0.1-2.86,0.12-4.29,0.08c-0.65-0.02-1.3-0.05-1.95-0.1c-0.38-0.03-0.76-0.06-1.13-0.09c-0.88-0.07,1.26,0.16-0.13-0.01
			c-12.61-1.62-24.8-5.92-36.45-10.88c-7.41-3.15-14.44-6.85-21.59-10.53c-14.91-7.69-30.09-14.82-45.18-22.13
			c-32.11-15.57-64.32-31.86-92.41-54.12c-27.54-21.82-50.2-49.63-59.01-84.15c-4.71-18.44-6.11-37.83-5.13-56.77
			c0.46-8.9,1.54-17.78,3.31-26.52c0.22-1.08,0.45-2.16,0.69-3.23c0.3-1.38-0.28,1.16,0.05-0.21c0.13-0.53,0.26-1.06,0.39-1.59
			c0.53-2.11,1.09-4.21,1.7-6.29c1.21-4.12,2.58-8.19,4.11-12.2c0.71-1.86,1.46-3.71,2.25-5.54c0.42-0.97,0.85-1.94,1.28-2.91
			c0.76-1.71,0.04-0.09-0.1,0.22c0.29-0.6,0.57-1.19,0.86-1.79c1.85-3.79,3.86-7.5,6.02-11.12c1.01-1.7,2.06-3.37,3.13-5.03
			c0.25-0.38,0.55-0.97,0.87-1.32c-1.64,1.78-0.76,1.1-0.32,0.48c0.68-0.97,1.36-1.95,2.05-2.91c2.49-3.43,5.11-6.76,7.87-9.98
			c0.61-0.71,1.23-1.41,1.84-2.11c1.54-1.76-0.5,0.62-0.55,0.6c0.03,0.01,0.95-1.03,1.09-1.18c1.56-1.67,3.16-3.31,4.79-4.91
			c1.45-1.43,2.93-2.83,4.43-4.2c0.81-0.74,1.62-1.46,2.44-2.19c0.41-0.36,0.83-0.72,1.24-1.08c1.72-1.52-1.48,1.18-0.26,0.21
			c3.38-2.69,6.72-5.4,10.23-7.92c1.84-1.32,3.7-2.61,5.59-3.86c0.95-0.63,1.92-1.25,2.87-1.87c0.46-0.3,1.85-1.14-0.31,0.19
			c0.49-0.3,0.98-0.61,1.48-0.91c8.14-4.96,16.62-9.35,25.33-13.2c1.13-0.5,2.26-0.99,3.39-1.47c-1.83,0.77,1.53-0.61,1.9-0.76
			c2.34-0.94,4.69-1.85,7.06-2.72c4.85-1.79,9.76-3.43,14.7-4.94c9.76-2.98,17.15-4.87,26.75-5.75c3.7-0.34,7.43-0.47,11.14-0.28
			c0.83,0.04,1.66,0.1,2.49,0.18c-1.43-0.13,0.28,0.05,0.79,0.12c1.56,0.22,3.12,0.51,4.65,0.89c2.55,0.63,5.05,1.5,7.41,2.67
			c0.54,0.27,1.06,0.56,1.58,0.85c-1.06-0.6-0.39-0.25,0.23,0.18c0.96,0.68,1.9,1.39,2.77,2.18c1.57,1.43,2.79,3.06,3.99,4.79
			c0.75,1.07,0-0.04,0.04,0.03c0.21,0.46,0.45,0.9,0.65,1.37c0.43,0.98,0.78,2,1.07,3.03c0.25,0.92,0.45,1.86,0.6,2.8
			c0.07,0.44,0.08,0.91,0.17,1.34c0.24,1.09-0.03-0.6-0.03-0.72c0.01,0.39,0.05,0.78,0.05,1.18c0,2.09-0.15,4.16-0.53,6.22
			c-0.06,0.34-0.58,2.38-0.13,0.74c0.45-1.66-0.14,0.43-0.23,0.75c-0.32,1.11-0.69,2.2-1.11,3.28c-0.21,0.55-0.45,1.09-0.67,1.63
			c-0.79,1.99,1-1.94,0.26-0.55c-0.61,1.14-1.19,2.29-1.85,3.41c-0.32,0.53-0.66,1.05-0.98,1.58c-1.22,1.99,1.52-2.05,0.47-0.69
			c-0.83,1.07-1.61,2.17-2.48,3.21c-0.34,0.41-2.1,2.38-0.36,0.45c1.63-1.81,0.16-0.19-0.26,0.24c-0.99,1.01-2.03,1.95-3.07,2.91
			c-1.86,1.72,2.57-1.99,0.52-0.46c-0.47,0.36-0.93,0.73-1.41,1.09c-0.55,0.41-1.1,0.81-1.67,1.2c-0.44,0.3-2.81,1.84-0.92,0.64
			c1.87-1.19-0.11,0.04-0.54,0.29c-0.61,0.35-1.23,0.69-1.85,1.01c-0.63,0.33-1.26,0.64-1.9,0.95c-0.53,0.25-2.9,0.99-1.25,0.58
			c1.75-0.43-0.37,0.13-0.81,0.29c-0.69,0.25-1.38,0.5-2.07,0.72c-1.5,0.49-3.02,0.92-4.56,1.28c-0.94,0.22-1.94,0.38-0.29,0.09
			c-0.76,0.13-1.51,0.27-2.27,0.38c-1.65,0.24-3.3,0.4-4.97,0.5c-9.29,0.53-18.56-0.11-27.64-1.84
			c-17.5-3.34-34.03-10.73-47.31-22.69c-13.12-11.83-22.24-27.08-27.09-44.02c-1.31-4.59-2.32-9.27-3.05-13.98
			c-0.74-4.8-1.08-7.85-0.97-12.28c0.11-4.14,0.63-8.26,1.52-12.3c-0.35,1.6,0.21-0.75,0.33-1.22c0.28-1.01,0.58-2.01,0.9-3.01
			c0.69-2.13,1.47-4.23,2.35-6.29c0.16-0.36,0.34-0.72,0.48-1.09c0.52-1.37-0.8,1.5-0.09,0.21c0.51-0.94,0.95-1.92,1.46-2.86
			c1.08-2.02,2.28-3.98,3.5-5.92c1.1-1.73-1.29,1.74,0.42-0.59c0.65-0.89,1.29-1.77,1.97-2.64c0.59-0.76,1.2-1.52,1.81-2.26
			c0.35-0.43,0.72-0.84,1.07-1.27c1.79-2.15-1.36,1.39-0.21,0.21c1.57-1.61,3.1-3.24,4.75-4.77c0.72-0.68,1.47-1.33,2.21-1.99
			c1.69-1.51-0.38,0.22-0.51,0.42c0.31-0.47,1.21-0.98,1.67-1.34c1.7-1.33,3.44-2.61,5.22-3.82c0.7-0.47,3.34-2.11,1.16-0.8
			c1.13-0.68,2.26-1.35,3.41-1.99c1.94-1.08,3.91-2.09,5.91-3.03c0.42-0.2,3.6-1.57,1.68-0.78c1.25-0.52,2.52-1,3.79-1.47
			c4.29-1.56,9.66-3.09,13.53-3.81c9-1.7,19.98-2.09,29.69-0.72c11.69,1.64,23.05,5.27,33.69,10.36c11.52,5.5,22.16,12.45,34,17.35
			c19.35,8.02,40.35,12.38,61.34,11.62c16.91-0.61,33.42-4.7,48.93-11.35c15.07-6.46,30.6-15.77,42-27.78
			c2.42-2.56,8.04-9.06,4.49-12.74c-3.39-3.51-10.62,1.66-12.89,4.05c-0.92,0.97-1.92,1.88-2.91,2.77
			c-0.51,0.46-1.04,0.91-1.56,1.37c-1.59,1.41,2.62-2.15,1.32-1.11c-0.43,0.34-0.84,0.7-1.26,1.04c-1.65,1.33-3.33,2.61-5.05,3.85
			c-2.07,1.49-4.3,2.78-6.35,4.3c-0.02,0.01,2.68-1.64,1.21-0.76c-0.3,0.18-0.59,0.36-0.88,0.54c-0.6,0.37-1.21,0.73-1.82,1.09
			c-1.36,0.79-2.73,1.56-4.12,2.3c-2.91,1.56-5.89,2.99-8.9,4.35c-0.38,0.17-0.77,0.33-1.16,0.51c0.19-0.08,2.26-0.92,0.64-0.27
			c-0.81,0.32-1.61,0.66-2.42,0.97c-1.78,0.69-3.57,1.34-5.37,1.95c-3.7,1.25-7.46,2.33-11.27,3.23c-0.96,0.23-1.93,0.43-2.9,0.65
			c-1.62,0.37-0.34,0.08-0.01,0.01c-0.5,0.1-1,0.19-1.5,0.28c-2.3,0.41-4.6,0.76-6.92,1.04c-8.89,1.08-18.29,1.23-26.98,0.37
			c-24.15-2.4-46.14-12.11-67.05-23.91c-20.77-11.72-44.99-17.84-68.85-15.16c-22.51,2.53-43.31,12.21-60.43,26.91
			c-15,12.87-27.27,30.41-32,49.78c-4.62,18.95-1.47,39.2,5.96,57.06c7.07,17.01,18.51,32.03,33.64,42.62
			c16.33,11.43,35.14,17.36,54.89,19.14c16.08,1.45,31.94,0,46.28-7.93c12.38-6.85,23.37-17.22,30.06-29.77
			c5.04-9.46,8.41-21.1,5.11-31.71c-3.15-10.11-11.98-16.54-21.99-19.01c-17.07-4.22-35.66-0.15-52.11,4.75
			c-20.17,6.01-39.93,14.17-58,25.03c-34.1,20.5-62.12,49.8-77.72,86.69c-15.04,35.59-17.12,77.15-9.02,114.72
			c7.89,36.58,30.89,67.06,59.53,90.29c29.31,23.78,63.37,41.08,97.17,57.48c15.66,7.6,31.42,14.98,46.87,23
			c7.4,3.84,14.74,7.58,22.45,10.77c12.53,5.18,25.68,9.54,39.29,10.45c16.16,1.08,32.99-7.92,37.94-24.12
			c3.4-11.13,1.08-23.99-7.32-32.32c-8.3-8.23-20.18-11.22-31.5-11.91c-33.43-2.02-66.97,17.37-89.15,41.01
			c-29.67,31.63-50.28,78.37-39.45,122.1c3.25,13.13,9.94,27.81,21.54,35.61c4.79,3.22,10.15,5.4,16.05,4.93
			c7.76-0.62,14.87-5.07,20.19-10.54c16.27-16.72,17.69-43.21,15.64-65.17c-2.35-25.23-11.85-49.77-27.39-69.82
			c-21.16-27.3-52.94-44.13-86.03-52.33c-5.08-1.26-10.21-2.34-15.37-3.24c-4.24-0.75-9.14-2.11-13.44-1.89
			c-4.86,0.25-9.92,2.09-14.29,4.09c-8.47,3.87-16.27,11.31-19.46,20.16c-2.87,7.94-1.02,16.62,3.19,23.71
			c4.47,7.53,12.82,12.27,20.85,15.17c10.56,3.8,22.27,4.92,33.42,4.24c29.03-1.77,57.21-16.53,74.34-40.2
			c10.32-14.25,16.5-30.73,18.68-48.17c1.45-11.6,0.92-23.36,0.38-35.01c-1.15-25-3.24-49.95-5.22-74.89
			c-2.45-30.68-4.94-61.36-7-92.07c0.06,0.91-0.09-1.32-0.12-1.8c-0.07-0.98-0.13-1.97-0.19-2.95c-0.14-2.09-0.27-4.19-0.4-6.28
			c-0.26-4.08-0.51-8.15-0.75-12.23c-0.48-8.17-0.93-16.34-1.32-24.52c-0.79-16.29-1.4-32.58-1.73-48.89
			c-0.6-29.76-0.42-59.62,2.15-89.29c1.07-12.4,2.58-24.78,4.93-37c0.26-1.34,0.53-2.69,0.81-4.03c0.14-0.66,0.28-1.32,0.42-1.97
			c0.15-0.68,0.82-3.46,0.15-0.71c0.61-2.48,1.21-4.97,1.9-7.43c1.32-4.74,2.83-9.42,4.66-13.99c0.38-0.95,0.77-1.89,1.18-2.82
			c0.21-0.49,0.44-0.97,0.65-1.46c0.57-1.33-0.66,1.4-0.61,1.31c0.19-0.33,0.33-0.71,0.5-1.05c0.92-1.84,1.86-3.66,2.91-5.42
			c0.48-0.81,1.01-1.6,1.5-2.41c1.07-1.73-1.9,2.61-0.68,1.01c0.31-0.4,0.59-0.83,0.9-1.24c0.53-0.71,1.07-1.4,1.64-2.08
			c0.28-0.33,0.57-0.65,0.84-0.98c1.02-1.26-2.76,2.86-0.97,1.1c0.59-0.58,1.18-1.16,1.78-1.74c2.12-2.03-2.82,2.1-0.26,0.22
			c0.64-0.47,1.29-0.92,1.92-1.38c1.65-1.2-2.61,1.47-1.26,0.79c0.39-0.2,0.75-0.44,1.14-0.64c0.67-0.36,1.42-0.63,2.07-1.01
			c-2.81,1.64-1.36,0.54,0.14,0.05c0.74-0.24,1.48-0.42,2.23-0.62c1.61-0.43-0.18,0.37-0.78,0.14c0.3,0.11,1.13-0.18,1.46-0.22
			c1.61-0.21,3.23-0.28,4.85-0.23c0.99,0.03,3.27,0.43,0.98,0.01c0.98,0.18,1.98,0.27,2.96,0.45c6.55,1.26,13.13,3.41,19.01,6.58
			c0.36,0.19,2.12,1.24,0.98,0.53c0.61,0.38,1.2,0.76,1.79,1.17c1.19,0.82,2.34,1.71,3.43,2.66c1.97,1.72,3.75,3.67,5.24,5.82
			c0.35,0.5,0.67,1.02,1,1.54c0.93,1.45-0.09-0.32,0.3,0.53c0.54,1.17,1.08,2.33,1.51,3.54c0.85,2.41,1.4,4.91,1.69,7.45
			c0.09,0.75,0.12,2.12,0.07,0.51c0.02,0.66,0.05,1.31,0.06,1.96c0.01,1.52-0.05,3.05-0.18,4.56c-0.25,2.9-0.79,5.73-1.37,8.58
			c0.49-2.41-0.02,0-0.18,0.6c-0.2,0.76-0.41,1.52-0.64,2.27c-0.52,1.76-1.09,3.5-1.7,5.23c-1.2,3.39-2.59,6.71-4.04,9.99
			c-1.03,2.33,0.61-1.23-0.19,0.43c-0.41,0.84-0.81,1.69-1.22,2.53c-0.96,1.94-1.95,3.87-2.96,5.77c-1.96,3.68-4.03,7.31-6.18,10.9
			c-2.27,3.8-4.63,7.54-7.04,11.25c-0.6,0.93-1.21,1.85-1.83,2.77c-0.42,0.63-2.32,3.44-0.69,1.05c-1.37,2-2.74,4-4.13,5.99
			c-23.61,33.69-50.6,64.91-76.93,96.46c-26.82,32.14-54.8,64.65-66.82,105.64c-9.95,33.91-7.63,70.79,14.62,99.44
			c11.4,14.68,26.93,25.66,43.57,33.69c18.51,8.93,39.39,15.36,60.09,15.39c34.27,0.04,63.16-21.33,80.13-50
			c11.13-18.81,19.32-42.25,17.56-64.37c-2.39-30.09-22.08-60.81-50.83-71.78c-41.74-15.93-82.26,17.21-106.98,47.48
			c-2.03,2.49-5.83,9.51-0.91,11.21C252.94,412.03,259.03,406.31,261.69,403.06L261.69,403.06z"/>
	</g>
</g>
<g>
	<g>
		<path class="st0" d="M450.93,194.12c-0.03,2.56-0.05,5.12-0.08,7.68c-0.07,6.91-0.14,13.81-0.21,20.72
			c-0.1,10.28-0.21,20.56-0.31,30.84c-0.13,12.46-0.25,24.91-0.38,37.37c-0.14,13.74-0.28,27.47-0.41,41.21
			c-0.14,13.77-0.28,27.54-0.42,41.31c-0.13,12.93-0.26,25.86-0.39,38.78c-0.11,10.85-0.22,21.7-0.33,32.55
			c-0.08,7.86-0.16,15.71-0.24,23.57c-0.04,3.7-0.1,7.4-0.11,11.09c0,0.16,0,0.32,0,0.48c-0.02,1.85,0.42,3.52,2.36,4.19
			c1.96,0.68,4.84-0.35,6.5-1.26c2.71-1.49,5.27-3.54,7.12-6.03c1.46-1.96,3.24-4.48,3.27-7.01c0.03-2.56,0.05-5.12,0.08-7.68
			c0.07-6.91,0.14-13.81,0.21-20.72c0.1-10.28,0.21-20.56,0.31-30.84c0.13-12.46,0.25-24.91,0.38-37.37
			c0.14-13.74,0.28-27.47,0.41-41.21c0.14-13.77,0.28-27.54,0.42-41.31c0.13-12.93,0.26-25.86,0.39-38.78
			c0.11-10.85,0.22-21.7,0.33-32.55c0.08-7.86,0.16-15.71,0.24-23.57c0.04-3.7,0.1-7.4,0.11-11.09c0-0.16,0-0.32,0-0.49
			c0.02-1.85-0.42-3.52-2.36-4.19c-1.96-0.68-4.84,0.35-6.5,1.26c-2.71,1.49-5.27,3.54-7.12,6.03
			C452.74,189.07,450.95,191.59,450.93,194.12L450.93,194.12z"/>
	</g>
</g>
<g>
	<path class="st0" d="M457.67,541.7c-6.67,0-12.08-5.41-12.08-12.08v-4.58c0-6.67,5.41-12.08,12.08-12.08s12.08,5.41,12.08,12.08
		v4.58C469.76,536.29,464.35,541.7,457.67,541.7z"/>
</g>
</svg>
